<?xml version="1.0" standalone="no"?>
<!DOCTYPE svg PUBLIC "-//W3C//DTD SVG 1.1//EN" "http://www.w3.org/Graphics/SVG/1.1/DTD/svg11.dtd" >
<svg xmlns="http://www.w3.org/2000/svg">
<metadata></metadata>
<defs>
<font id="deftone_stylusregular" horiz-adv-x="468" >
<font-face units-per-em="2048" ascent="1638" descent="-410" />
<missing-glyph horiz-adv-x="413" />
<glyph horiz-adv-x="2048" />
<glyph horiz-adv-x="2048" />
<glyph unicode="&#xd;" horiz-adv-x="2048" />
<glyph unicode=" "  horiz-adv-x="413" />
<glyph unicode="&#x09;" horiz-adv-x="413" />
<glyph unicode="&#xa0;" horiz-adv-x="413" />
<glyph unicode="!" horiz-adv-x="593" d="M268 80q0 16 8 35q25 55 97 88q61 27 121 26q45 0 82.5 -20.5t37.5 -56.5q0 -19 -8 -37q-25 -53 -96 -86q-61 -29 -119 -29q-47 0 -82 18q-41 23 -41 62zM422 416l321 725q4 6 5 14q0 20 -24 38.5t-44 18.5h-29q-51 0 -51 58q0 59 55 59h172q248 0 248 -110 q0 -35 -20 -78l-377 -848z" />
<glyph unicode="&#x22;" horiz-adv-x="518" d="M498 918q0 12 8 28q18 43 23.5 123t23.5 125q51 115 166 115q80 0 80 -56q-1 -24 -17 -59q-23 -51 -86 -130t-82 -118q-27 -61 -79 -61q-37 0 -37 33zM748 918q0 12 6 28q20 43 24 123t25 125q51 115 164 115q80 0 80 -56q-1 -24 -17 -59q-23 -51 -86 -130t-80 -118 q-29 -61 -82 -61q-35 0 -34 33z" />
<glyph unicode="#" horiz-adv-x="778" d="M369 668l63 141h121l63 143h-120l63 142h121l59 131h121l-57 -131h92l59 131h129l-57 -131h143l-63 -142h-143l-64 -143h143l-63 -141h-143l-64 -142h-129l62 142h-93l-63 -142h-121l64 142h-123zM676 809h92l63 143h-92z" />
<glyph unicode="$" horiz-adv-x="714" d="M143 616q0 31 13 60l120 74q-6 -23 -6 -43q0 -84 80 -138q74 -45 172 -45q119 0 160 88q10 27 10 50q0 63 -65 94q-113 51 -119 53q-59 39 -59 96q0 33 18 74q37 82 127 135q82 47 168 47h45l53 119h146l-52 -119h226l-142 -112h-174q-80 0 -114 -78q-10 -23 -11 -41 q0 -41 59.5 -61.5t116.5 -39.5q61 -29 62 -88q0 -37 -23 -90q-102 -229 -338 -245l-53 -123h-147l53 120h-80q-84 0 -165 66t-81 147z" />
<glyph unicode="%" horiz-adv-x="681" d="M362 604l709 715h92l-706 -715h-95zM526 1085q0 31 29 93q61 141 164 141h94q61 0 61 -57q1 -35 -22 -84q-63 -141 -158 -142h-108q-59 0 -60 49zM645 653q0 33 27 92q63 143 166 144h94q61 0 61 -60q1 -35 -22 -84q-63 -141 -158 -141h-108q-59 0 -60 49zM653 1108 q0 -14 13 -14q25 -1 39 34l43 97q4 10 4 16q0 12 -15 12q-25 0 -37 -28l-43 -97q-4 -10 -4 -20zM772 678q0 -16 12 -16q25 -1 39 34l43 99q4 8 4 14q0 14 -14 14q-25 0 -37 -28l-43 -99q-4 -10 -4 -18z" />
<glyph unicode="&#x26;" horiz-adv-x="1087" d="M188 160q0 74 50 186l38 88q47 106 162 189q106 76 224 102q-156 35 -156 172q0 47 22 98l62 140q47 104 213 159q123 41 250 41q109 0 186 -30q100 -41 100 -121q0 -14 -4 -33l-303 -111l55 127q2 4 3 7q0 33 -78 32q-94 0 -129 -80l-76 -168q-8 -16 -8 -40 q0 -57 30.5 -117t67.5 -62l64 142h299l-64 -142h82l-45 -98h-82l-195 -436q-2 -6 -2 -12q0 -12 21 -13q61 0 156.5 67.5t123.5 131.5l56 -74q-55 -125 -224 -217q-156 -88 -282 -88q-43 0 -88 29q-68 -29 -127 -29h-156q-246 0 -246 160zM461 156q0 -33 26 -33l154 -2 q4 53 18 84l191 426q-219 -66 -266 -174l-111 -246q-12 -31 -12 -55z" />
<glyph unicode="'" d="M610 1153q0 18 8 41q25 53 97 86q61 29 121 29q45 0 82.5 -20.5t37.5 -59.5q0 -17 -8 -35q-80 -176 -309 -236l-16 41q96 16 125 80q-18 -4 -35 -4q-102 0 -103 78z" />
<glyph unicode="(" horiz-adv-x="485" d="M143 123q0 39 19 82l409 919q37 82 124 142.5t169 60.5q84 0 152 -20l-66 -148q-10 2 -20 2q-45 0 -62 -37l-409 -919q-2 -8 -2 -17q0 -20 30 -20q10 0 23 2l-66 -147q-88 -23 -170 -23q-61 0 -96 35t-35 88z" />
<glyph unicode=")" horiz-adv-x="485" d="M63 23l66 147q10 -2 18 -2q45 0 64 37l407 919q4 8 5 15q0 23 -33 22q-10 0 -21 -2l66 148q86 20 170 20q61 0 96 -33.5t35 -87.5q0 -41 -18 -82l-410 -919q-37 -84 -124 -144.5t-169 -60.5q-84 0 -152 23z" />
<glyph unicode="*" horiz-adv-x="919" d="M260 406q0 80 127 149q78 43 180.5 63.5t147.5 43.5q-23 27 -112 50t-126 64q-31 31 -31 70q0 51 51.5 96t104.5 45q45 0 79 -36t45 -121t34 -115q18 47 18 116v15.5v13.5q0 82 29 144q61 139 170 139q66 0 65 -64q0 -33 -20 -75q-33 -76 -104 -156q-76 -86 -99 -129 q47 31 135 117q80 80 146.5 115.5t113.5 35.5q63 0 64 -61q0 -80 -129 -150q-72 -41 -182.5 -64.5t-157.5 -49.5q27 -23 111 -43.5t122 -63.5q29 -33 29 -70q0 -51 -50 -96t-103 -45q-45 0 -79 36t-44 109q-10 84 -27 113q-12 -41 -12 -92v-21.5v-21.5q0 -72 -27 -131 q-61 -141 -170 -141q-66 0 -65 63q0 33 20 78q33 76 98 147q76 82 99 123q-45 -29 -131 -114q-78 -76 -143.5 -112t-112.5 -36q-63 0 -64 62z" />
<glyph unicode="+" d="M326 641l45 98h141l61 140h99l-62 -140h146l-45 -98h-144l-67 -149h-99l66 149h-141z" />
<glyph unicode="," d="M129 76q0 18 10 39q25 55 97 88q61 27 118 26q47 0 84 -20.5t37 -56.5q0 -19 -8 -37q-78 -176 -307 -234l-19 39q98 18 127 80q-18 -4 -35 -4q-104 0 -104 80z" />
<glyph unicode="-" d="M332 641l45 98h385l-43 -98h-387z" />
<glyph unicode="." d="M131 80q0 16 8 35q25 55 97 88q61 27 118 26q47 0 84 -20.5t37 -56.5q0 -19 -8 -37q-25 -53 -96 -86q-59 -29 -119 -29q-47 0 -84 20.5t-37 59.5z" />
<glyph unicode="/" horiz-adv-x="749" d="M125 166l907 995h176l-907 -995h-176z" />
<glyph unicode="0" horiz-adv-x="759" d="M150 113q0 72 49 184l80 180q49 111 137 191q102 92 207 92h200q129 0 129 -133q0 -68 -37 -150l-79 -180q-133 -297 -334 -297h-234q-119 0 -118 113zM403 139q0 -31 31 -30q49 -1 78 65l184 410q6 16 6 26q0 27 -32 27q-51 0 -76 -53l-182 -410q-8 -18 -9 -35z" />
<glyph unicode="1" horiz-adv-x="352" d="M49 0l252 569q4 10 4 21q0 53 -51 53h-29q-49 0 -49 55q0 61 55 62h156q98 0 141 -15q57 -20 58 -75q0 -39 -27 -101l-254 -569h-256z" />
<glyph unicode="2" horiz-adv-x="677" d="M35 0l110 250q51 117 164 166q94 25 193.5 53.5t132.5 99.5q8 18 8 33q0 45 -55 45h-174l-41 113h418q66 0 107.5 -31t41.5 -84q0 -31 -16 -70q-45 -100 -168 -157q-106 -37 -215 -74q-117 -43 -148 -113l-47 -108h340l-53 -123h-598z" />
<glyph unicode="3" horiz-adv-x="677" d="M35 0l141 113h174q45 0 89 42t44 89q0 39 -55 46t-55 48q0 45 45 88t91 43t89 41t43 88q0 49 -53 49h-174l-41 113h418q66 0 107.5 -31t41.5 -84q0 -31 -14 -67q-61 -135 -271 -197q109 -43 109 -133q0 -31 -14 -66q-37 -82 -124 -132t-171 -50h-420z" />
<glyph unicode="4" horiz-adv-x="843" d="M176 297l205 463q72 -10 125 -41q66 -41 65 -98q0 -25 -12 -52l-76 -172h117l18 39q51 119 144 162q66 29 194 29h5l-101 -230h109l-45 -100h-109l-133 -297h-258l131 297h-379z" />
<glyph unicode="5" horiz-adv-x="702" d="M35 0l53 123h258q121 0 166 100q12 31 12 56q0 82 -166 81q-86 0 -174 -22l189 422h631l-142 -113h-270l-80 -178h53q117 0 168 -16q72 -25 72 -93q0 -44 -29 -110q-68 -152 -178 -207q-86 -43 -248 -43h-315z" />
<glyph unicode="6" horiz-adv-x="714" d="M102 100q0 41 23 95l156 348q43 96 125.5 156.5t179.5 60.5h354l-141 -113h-39q-25 2 -39 2q-162 0 -207 -100l-31 -72q70 25 138 25q88 0 143 -41t55 -113q1 -45 -22 -98q-70 -152 -181 -207q-84 -43 -247 -43h-140q-127 0 -127 100zM356 166q0 -43 52 -43q45 0 98 45 q47 43 67 90q10 25 11 43q0 59 -88 59q-31 0 -68 -6l-45 -100q-27 -59 -27 -88z" />
<glyph unicode="7" horiz-adv-x="688" d="M49 0l584 569q23 20 22 41q0 33 -53 33h-211q-49 0 -49 55q0 61 55 62h420q168 0 168 -84q0 -48 -61 -107l-586 -569h-289z" />
<glyph unicode="8" horiz-adv-x="714" d="M123 133q0 55 27 117q41 88 172 168q-20 27 -21 65q0 31 12 60q96 217 322 217h104q78 0 126 -35t48 -96q0 -39 -20 -86q-31 -70 -117 -121q37 -49 37 -100q0 -35 -16 -72q-47 -102 -144.5 -176t-199.5 -74h-205q-125 0 -125 133zM352 186q0 -63 56 -63q57 0 117.5 57.5 t60.5 116.5q0 57 -76 57q-98 0 -141 -100q-16 -35 -17 -68zM520 541q0 -45 53 -45q84 0 113 63q6 16 6 29q0 51 -63 51q-72 0 -103 -68q-6 -18 -6 -30z" />
<glyph unicode="9" horiz-adv-x="735" d="M135 -2l144 113h29.5h33.5q158 0 203 98l33 74q-72 -27 -140 -27q-88 0 -143 41t-55 113q0 45 22 98q70 152 180 207q86 43 248 43h139q127 0 127 -101q0 -41 -22 -94l-156 -348q-43 -96 -126 -156.5t-179 -60.5h-338zM475 457q0 -59 90 -60q29 0 66 6l45 101 q27 59 26 90q0 43 -51 43q-45 0 -95 -45t-71 -90q-10 -27 -10 -45z" />
<glyph unicode=":" d="M131 80q0 16 8 35q25 55 97 88q61 27 118 26q47 0 84 -20.5t37 -56.5q0 -19 -8 -37q-25 -53 -96 -86q-59 -29 -119 -29q-47 0 -84 20.5t-37 59.5zM279 412q0 16 8 34q25 55 96 89q61 27 119 26q47 0 85 -20.5t38 -57.5q-1 -19 -11 -37q-23 -53 -96 -86q-59 -29 -119 -28 q-47 0 -80 18q-41 23 -40 62z" />
<glyph unicode=";" d="M129 76q0 18 10 39q25 55 97 88q61 27 118 26q47 0 84 -20.5t37 -56.5q0 -19 -8 -37q-78 -176 -307 -234l-19 39q98 18 127 80q-18 -4 -35 -4q-104 0 -104 80zM279 412q0 16 8 34q25 55 96 89q61 27 119 26q47 0 85 -20.5t38 -57.5q-1 -19 -11 -37q-23 -53 -96 -86 q-59 -29 -119 -28q-47 0 -80 18q-41 23 -40 62z" />
<glyph unicode="=" d="M258 475l45 98h385l-43 -98h-387zM406 807l45 98h385l-43 -98h-387z" />
<glyph unicode="?" horiz-adv-x="991" d="M250 80q0 16 8 35q25 55 96 88q59 27 119 26q47 0 84 -20.5t37 -56.5q0 -19 -8 -37q-25 -53 -97 -86q-61 -29 -118 -29q-47 0 -84 20.5t-37 59.5zM401 416l64 143q31 70 80 107q39 29 124 60.5t212 113.5q147 96 174 155l43 101q12 25 12 43q0 66 -102 65 q-45 0 -140.5 -29.5t-138.5 -29.5q-84 0 -158 78l50 108q78 -55 141 -55q23 0 135 35q74 23 145 22q133 0 230 -26q147 -39 147 -129q0 -27 -12 -58l-49 -106q-80 -182 -379 -326q-57 -25 -113 -49q-72 -39 -90 -80l-119 -266z" />
<glyph unicode="@" horiz-adv-x="1392" d="M383 266q0 53 35 127l225 508q117 260 361 260h397q72 0 115 -45t43 -115q0 -49 -23 -100l-135 -303q-41 -90 -143.5 -159.5t-192.5 -69.5q-47 0 -51 47q-55 -49 -117 -49q-150 0 -149 102q0 61 65 207q47 104 119 176q88 86 184 86q70 0 107 -49l12 31h133l-74 -162 q-29 -68 -88 -203q-8 -16 -8 -27q0 -18 23 -18q57 0 120 143l78 176q33 74 33 132q0 109 -113 108h-376q-35 0 -64 -65l-270 -605q-14 -35 -15 -61q0 -66 127 -66q14 0 41 2h39l17 -104h-346q-109 0 -109 96zM922 481q0 -20 16 -20q28 0 55 57l135 303q2 4 2 8q0 18 -24 19 q-31 0 -43 -29l-131 -293q-10 -27 -10 -45z" />
<glyph unicode="A" horiz-adv-x="976" d="M135 125q0 57 33 131l364 817q57 129 195 201q121 63 256 63q178 0 238 -100l41 92h215l-502 -1124q-2 -6 -2 -10q0 -14 20 -15q63 0 156.5 66.5t124.5 132.5l55 -74q-51 -113 -227 -211q-168 -94 -311 -94q-119 0 -119 121q0 18 4 39q-164 -160 -402 -160 q-139 0 -139 125zM442 162q0 -18 23 -19q27 0 72 23q162 80 219 213l268 600q16 41 16 90q0 135 -90 135q-47 0 -76 -63l-425 -957q-6 -12 -7 -22z" />
<glyph unicode="B" horiz-adv-x="966" d="M98 0l508 1141q2 6 2 14q0 20 -22.5 38.5t-44.5 18.5h-355q-49 0 -49 58q0 59 56 59h497q188 0 232 -59q85 65 244 65h5q100 0 177 -30q98 -39 98 -115q0 -27 -14 -60l-48 -104q-49 -111 -159.5 -193.5t-229.5 -107.5q150 -43 150 -184q0 -51 -25 -107l-43 -96 q-80 -178 -295 -268q-168 -70 -366 -70h-318zM485 162q0 -18 23 -19q29 0 76 25q158 82 215 211l35 78q14 33 14 63q0 96 -137 158l-219 -494q-6 -12 -7 -22zM743 752q267 102 314 206l67 148q8 23 9 41q0 67 -80 67h-2q-100 0 -148 -108z" />
<glyph unicode="C" horiz-adv-x="741" d="M170 162q0 74 49 184l301 678q133 299 385 299h254q129 0 129 -100q0 -25 -6 -56l-305 -110l49 110q2 4 2 9q0 26 -55 26h-4q-68 0 -84 -37l-426 -954q-16 -41 -17 -57q0 -31 66 -31q219 0 397 117q104 72 135 139l56 -72l-2 -2q-51 -117 -234 -215q-168 -90 -289 -90 h-155q-246 0 -246 162z" />
<glyph unicode="D" horiz-adv-x="966" d="M98 0l508 1141q2 6 2 14q0 20 -22.5 38.5t-44.5 18.5h-355q-49 0 -49 58q0 59 56 59h497q188 0 232 -59q85 65 244 65h5q100 0 177 -30q98 -39 98 -115q0 -27 -14 -60l-355 -792q-80 -178 -295 -268q-168 -70 -366 -70h-318zM485 162q0 -18 23 -19q29 0 76 25 q158 82 215 211l325 727q8 23 9 41q0 67 -80 67h-2q-100 0 -148 -108l-411 -922q-6 -12 -7 -22z" />
<glyph unicode="E" horiz-adv-x="745" d="M137 1270q0 59 56 59h497q72 0 111 -33q123 43 262 43q240 0 240 -135q0 -16 -5 -37l-305 -110l49 110q2 4 2 9q0 30 -52 30h-3q-72 0 -106 -80l-76 -168q-10 -23 -10 -43q0 -84 139 -163l-33 -74q-258 -82 -319 -221l-111 -246q-16 -39 -16 -57q0 -33 67 -33 q137 0 291 61q188 76 242 197l55 -72v-2q-51 -117 -233 -215q-168 -90 -289 -90h-156q-246 0 -246 162q0 74 50 184l38 88q47 106 162 189q104 76 224 102q-66 14 -112 60t-46 110q2 55 63 192q14 35 31 64q-35 61 -57 61h-355q-49 0 -49 58z" />
<glyph unicode="F" d="M-74 123q0 20 11 43l90 201q119 266 401 372l178 402q2 6 2 14q0 20 -22.5 38.5t-44.5 18.5h-355q-49 0 -49 58q0 59 56 59h1226q-76 -82 -100 -115q-49 -63 -72 -124h-129l4 10q37 82 66 112h-250q-2 -33 -20 -71l-179 -402h303l-45 -98h-303l-186 -420 q-49 -109 -154 -168q-92 -53 -207 -53q-76 0 -141 29q-80 35 -80 94zM100 166q0 -20 29 -21q33 0 49 33q51 121 162 365q-84 -20 -152 -176l-86 -193q-2 -4 -2 -8z" />
<glyph unicode="G" horiz-adv-x="964" d="M102 1270q0 59 58 59h497q104 0 160 -16q43 10 88 10h285q131 0 131 -100q0 -25 -8 -56l-303 -110l49 110v7q0 28 -71 28h-5q-82 0 -98 -37l-123 -276l385 -213l-191 -428q-10 -20 -10 -33q0 -27 33 -27q59 0 149.5 65.5t116.5 125.5l55 -72v-2q-45 -102 -196 -192 q-133 -80 -254 -103l-53 -121q-47 -106 -154 -168q-96 -57 -205 -57q-82 0 -137 33q-61 39 -61 104q0 35 18 74q53 123 152 217q117 113 227 113h16l15 31q-66 -18 -156 -19q-246 0 -246 160q0 74 49 184l256 580q4 6 4 14q0 20 -22.5 38.5t-44.5 18.5h-354q-51 0 -52 58z M401 -166q0 -22 28 -22h3h2q29 0 43 30q29 63 86 193q-37 -10 -99.5 -88t-62.5 -113zM541 369q0 -31 24 -31q62 0 164 37l150 336l-158 86l-166 -371q-14 -33 -14 -57z" />
<glyph unicode="H" horiz-adv-x="1013" d="M98 0l508 1141q2 6 2 14q0 20 -22.5 38.5t-44.5 18.5h-355q-49 0 -49 58q0 59 56 59h497q246 0 246 -110q0 -35 -18 -78l-179 -402h222l262 590h297l-502 -1124q-2 -6 -2 -10q0 -14 20 -15q63 0 157.5 66.5t123.5 132.5l55 -74q-51 -113 -227 -211q-168 -94 -311 -94 q-55 0 -97.5 35t-42.5 86q0 27 13 53l208 467h-221l-284 -641h-312z" />
<glyph unicode="I" d="M117 0l506 1141q4 6 4 14q0 20 -22.5 38.5t-45.5 18.5h-354q-51 0 -51 58q0 59 55 59h500q245 0 245 -109q0 -36 -20 -79l-506 -1141h-311z" />
<glyph unicode="J" horiz-adv-x="620" d="M-127 -199q0 16 8 33l133 301q53 119 191 223q121 92 272 150l281 633q4 6 4 14q0 20 -22.5 38.5t-45.5 18.5h-354q-51 0 -51 58q0 59 55 59h500q246 0 246 -110q0 -35 -19 -78l-557 -1252q-49 -109 -154 -168q-94 -53 -206 -53q-86 0 -172 31q-109 39 -109 102zM45 -172 q0 -12 68 -12h3q52 0 66 30l207 463q-49 -12 -119.5 -67.5t-93.5 -106.5l-129 -293q-2 -2 -2 -14z" />
<glyph unicode="K" horiz-adv-x="794" d="M39 0l508 1141q4 6 4 14q0 20 -23.5 38.5t-44.5 18.5h-354q-51 0 -51 58q0 59 55 59h498q248 0 248 -110q0 -35 -21 -78l-162 -365q10 -2 25 -2q63 0 84 47l143 320q37 84 117 136t164 52h237q33 0 33 -20q0 -29 -44 -63t-75 -34h-13h-19q-39 0 -58 -6q-41 -20 -88 -129 l-115 -256q-33 -72 -169 -114q71 -46 71 -92q0 -15 -6 -29l-143 -322q-12 -27 -13 -45q0 -31 33 -31q61 0 147.5 65.5t114.5 125.5l56 -72l-2 -2q-53 -123 -242 -219q-168 -86 -297 -86q-27 0 -59 14q-70 31 -70 103q0 37 20 84l172 385q4 12 5 20q0 31 -54 31q-10 0 -18 -2 l-281 -635h-313z" />
<glyph unicode="L" horiz-adv-x="1075" d="M-31 -31q0 31 15 66q51 111 144 182.5t206 73.5l311 700q18 43 29 60q18 35 41 55q-188 125 -318 125q-51 0 -139 -27.5t-98 -27.5q-31 0 -31 43q0 41 59 63q104 41 230 41q207 0 413 -109q117 109 328 109q174 0 174 -109q0 -33 -20 -75q-35 -80 -107.5 -126t-152.5 -46 q-57 0 -97 24l-313 -702q96 -12 172 -62q55 -37 109 -75q63 -39 139 -39q119 0 262 147l80 -20q-139 -137 -219 -183q-104 -61 -246 -61q-84 0 -193.5 62.5t-177.5 64.5l-28 -68q-47 -104 -160 -164q-98 -51 -209 -51q-80 0 -137 31q-66 35 -66 98zM133 0q0 -20 29 -20h2 q32 0 47 32l47 111q-37 -23 -76 -45q-27 -18 -47 -70q-2 -4 -2 -8zM1008 1106q66 -25 79 -25q57 0 82 37q11 15 11 29q0 31 -31 31q-68 0 -141 -72z" />
<glyph unicode="M" horiz-adv-x="1536" d="M98 0l508 1141q2 6 2 14q0 20 -22.5 38.5t-44.5 18.5h-355q-49 0 -49 58q0 59 56 59h497q203 0 240 -72q145 82 284 82q74 0 142 -14q102 -20 104 -68q86 82 262 82h23q82 0 151 -36q82 -43 82 -111q0 -25 -12 -51l-416 -936q-2 -6 -2 -10q0 -14 19 -15q66 0 159 66.5 t123 132.5l56 -74q-51 -115 -230 -211q-168 -94 -311 -94q-53 0 -95 35t-42 86q0 27 12 53l430 967q10 20 10 35q0 29 -32 28q-68 0 -160 -76.5t-123 -148.5l-436 -979h-297l506 1141q10 23 10 37q0 27 -29 26q-66 0 -157 -82q-84 -74 -115 -143l-436 -979h-312z" />
<glyph unicode="N" horiz-adv-x="1013" d="M98 0l508 1141q2 6 2 14q0 20 -22.5 38.5t-44.5 18.5h-355q-49 0 -49 58q0 59 56 59h497q203 0 240 -72q145 82 284 82q80 0 152 -36q80 -43 80 -111q0 -25 -10 -51l-418 -936q-2 -6 -2 -10q0 -14 20 -15q63 0 157.5 66.5t123.5 132.5l55 -74q-51 -115 -227 -211 q-168 -94 -311 -94q-55 0 -97.5 35t-42.5 86q0 27 13 53l430 967q10 20 10 37q0 27 -29 26q-66 0 -157 -82q-84 -74 -115 -143l-436 -979h-312z" />
<glyph unicode="O" horiz-adv-x="976" d="M145 162q0 41 23 94l364 817q59 131 195 201q115 59 254 59q86 0 164 -24q66 47 147 47q123 0 123 -103q0 -51 -37 -112q33 -10 58 -11q68 0 145 58q8 6 18 6q16 0 33 -14.5t17 -30.5q-1 -11 -7 -19q-72 -102 -309 -126l-334 -748q-115 -256 -520 -256q-334 0 -334 162z M487 256q0 -72 88 -72q95 1 142 107l307 688q16 41 16 90q0 135 -90 135q-47 0 -76 -63l-378 -850q-8 -18 -9 -35zM1217 1208q0 -20 14 -36.5t33 -16.5q4 0 10 2q12 25 12 53q0 39 -26 39q-43 0 -43 -41z" />
<glyph unicode="P" horiz-adv-x="966" d="M98 0l508 1141q2 6 2 14q0 20 -22.5 38.5t-44.5 18.5h-150q-49 0 -49 58q0 59 55 59h293q188 0 232 -59q85 65 244 65h5q100 0 177 -30q98 -39 98 -115q0 -27 -14 -60l-226 -503q-86 -193 -297 -281q-160 -67 -368 -67h-6l-125 -279h-312zM567 352q267 103 314 207 l243 547q8 23 9 41q0 67 -80 67h-2q-100 0 -148 -108z" />
<glyph unicode="Q" horiz-adv-x="976" d="M145 162q0 41 23 94l364 817q59 131 195 201q115 59 254 59q86 0 164 -24q63 47 147 47q123 0 123 -103q0 -51 -37 -112q33 -10 58 -11q49 0 145 58l61 -58q-100 -104 -309 -126l-334 -748q-94 -209 -378 -246l-125 -284l-199 116l72 164q-223 25 -224 156zM487 256 q0 -72 88 -72q95 1 142 107l307 688q16 41 16 90q0 135 -90 135q-47 0 -76 -63l-378 -850q-8 -18 -9 -35zM1217 1208q0 -20 14 -36.5t33 -16.5q4 0 10 2q12 25 12 53q0 39 -26 39q-43 0 -43 -41z" />
<glyph unicode="R" horiz-adv-x="966" d="M98 0l508 1141q2 6 2 14q0 20 -22.5 38.5t-44.5 18.5h-150q-49 0 -49 58q0 59 55 59h293q188 0 232 -59q85 65 244 65h5q100 0 177 -30q98 -39 98 -115q0 -27 -14 -60l-48 -104q-49 -111 -159.5 -193.5t-229.5 -107.5q150 -43 150 -184q0 -51 -25 -107l-82 -186 q-10 -20 -10 -35q0 -25 29 -25q59 0 144 65.5t112 125.5l55 -72q-51 -117 -224 -212t-315 -95q-55 0 -89.5 40t-34.5 93q0 35 14 68l115 256q14 33 14 63q0 96 -137 158l-301 -678h-312zM743 752q267 102 314 206l67 148q8 23 9 41q0 67 -80 67h-2q-100 0 -148 -108z" />
<glyph unicode="S" horiz-adv-x="823" d="M115 213q0 61 32 135q106 240 363 346q82 35 135 35q-14 66 -14 115q0 82 43 147q18 43 69 115l-98 74q-72 51 -108 51q-39 0 -109 -27.5t-74 -27.5q-29 0 -28 45q0 35 36 53q106 49 218 49q82 0 155 -35q61 -37 125 -74q117 109 328 109q172 0 172 -109q0 -33 -19 -75 q-35 -80 -107.5 -126t-152.5 -46q-57 0 -96 24q-45 -57 -45 -100q0 -33 25 -72q20 -29 41 -59q41 -20 92 -21q33 0 61 11l-45 -101q-29 -20 -86 -22q18 -39 19 -84q0 -68 -54 -187l-30 -71q-68 -145 -234 -228q-141 -69 -295 -69q-137 0 -225 55q-94 61 -94 170zM352 240 q0 -49 28 -83t73 -34q66 0 133 45t96 108.5t29 124.5q0 25 -31 170q-125 -45 -191 -98q-76 -61 -122 -170q-14 -31 -15 -63zM1036 1106q66 -25 80 -25q57 0 82 37q10 15 10 29q0 31 -30 31q-68 0 -142 -72z" />
<glyph unicode="T" horiz-adv-x="710" d="M244 0l504 1141q2 6 2 14q0 20 -22.5 38.5t-45.5 18.5h-354q-49 0 -49 58q0 59 55 59h1227q-76 -82 -101 -115q-49 -63 -71 -124h-129l4 10q37 82 65 112h-250q-2 -31 -20 -71l-490 -1141h-325z" />
<glyph unicode="U" horiz-adv-x="1013" d="M137 1270q0 59 56 59h497q246 0 246 -110q0 -35 -18 -78l-426 -957q-6 -12 -7 -22q0 -18 23 -19q25 0 67 21q164 80 224 215l424 950h297l-502 -1124q-2 -6 -2 -10q0 -14 20 -15q63 0 157.5 66.5t123.5 132.5l55 -74q-51 -115 -227 -211q-168 -94 -311 -94 q-119 0 -119 121q0 18 4 39q-164 -160 -402 -160q-139 0 -139 125q0 57 33 131l395 885q2 6 2 14q0 20 -22.5 38.5t-44.5 18.5h-355q-49 0 -49 58z" />
<glyph unicode="V" horiz-adv-x="1013" d="M137 1270q0 59 56 59h497q246 0 246 -110q0 -35 -18 -78l-426 -957q-6 -12 -7 -22q0 -18 23 -19q25 0 70 23q162 78 221 213l424 950h297l-234 -526q-125 -276 -399 -524q-307 -279 -570 -279q-139 0 -139 125q0 57 33 131l395 885q2 6 2 14q0 20 -22.5 38.5t-44.5 18.5 h-355q-49 0 -49 58z" />
<glyph unicode="W" horiz-adv-x="1542" d="M129 1270q0 59 55 59h506q246 0 246 -110q0 -35 -18 -78l-426 -957q-4 -12 -5 -20q0 -20 25 -21q66 0 155 71t117 136l437 979h299l-510 -1145q-6 -12 -6 -20q0 -20 24 -21q70 0 170 82t131 154l424 950h297l-233 -526q-123 -276 -398 -524q-309 -279 -571 -279 q-139 0 -139 125q0 6 2 16q-213 -141 -394 -141q-139 0 -139 125q0 57 33 131l395 885q2 6 2 14q0 20 -22.5 38.5t-44.5 18.5h-361q-51 0 -51 58z" />
<glyph unicode="X" horiz-adv-x="1013" d="M113 2l65 143q59 137 170 277q117 152 244 244q-117 10 -117 120q0 59 33 134l98 221q2 6 2 14q0 20 -22.5 38.5t-44.5 18.5h-355q-49 0 -49 58q0 59 56 59h497q246 0 246 -110q0 -35 -18 -78l-132 -293q-4 -12 -4 -23q0 -18 23 -18q25 0 67 22q162 78 222 213l129 287 h297l-21 -45q-104 -236 -383 -436q129 -6 129 -115q0 -53 -31 -123l-161 -362q-8 -20 -9 -33q0 -27 31 -27q61 0 150.5 65.5t117.5 125.5l56 -72l-2 -2q-49 -113 -228 -211q-168 -94 -311 -94q-57 0 -103 44t-46 103q0 27 10 54l215 481q6 12 6 23q0 18 -22 18 q-25 0 -68 -23q-164 -78 -223 -213l-217 -485h-297z" />
<glyph unicode="Y" horiz-adv-x="1013" d="M137 1270q0 59 56 59h497q246 0 246 -110q0 -35 -18 -78l-338 -756q-4 -14 -5 -23q0 -18 23 -18q55 0 152.5 75t121.5 130l349 780h311l-641 -1440q-49 -111 -158 -172q-98 -57 -213 -57q-76 0 -137 29q-74 35 -74 96q0 23 13 49l36 84q119 266 400 373l14 28 q-197 -118 -363 -118h-3q-137 0 -138 123q0 57 33 131l305 686q2 6 2 14q0 20 -22.5 38.5t-44.5 18.5h-355q-49 0 -49 58zM483 -166q0 -20 31 -20h2q31 0 45 32q35 84 109 248q-82 -20 -152 -176l-33 -76q-2 -4 -2 -8z" />
<glyph unicode="Z" horiz-adv-x="1200" d="M51 115q0 31 17 69q109 246 514 256q362 375 735 770q2 4 2 9q0 16 -37 16h-475q-31 0 -31 37q0 18 8.5 36.5t20.5 18.5h919q27 0 27 -16q0 -18 -25 -41l-872 -883q70 -27 129 -86q45 -57 90 -115q65 -73 120 -73h1q121 0 264 147l78 -20q-139 -137 -217 -183 q-106 -61 -246 -61q-80 0 -149 55q-53 51 -107 103q-59 55 -112 84q-102 -106 -233.5 -172t-250.5 -66q-170 0 -170 115zM188 164q0 -27 56 -27q77 0 196 133q-61 0 -145 -26q-106 -33 -107 -80z" />
<glyph unicode="\" horiz-adv-x="749" d="M596 1161h176l23 -995h-179z" />
<glyph unicode="^" horiz-adv-x="2895" d="M127 0v600h2v96h137v58h-37v180h37v63h-37v76h899v-94q-14 27 -49 27q-94 0 -94 -158q0 -156 98 -156q31 0 64 39v-35h49v377h766v-53h70v53h737v-1073h-2642zM129 754v180h39v-180h-39zM129 997v76h39v-76h-39zM186 160h123v86h-45v301h-78v-387zM289 823 q0 -131 94 -131q29 0 51 17q0 -47 -57 -47h-31v-62h43q113 12 113 145v252h-68v-186q0 -53 -41 -53q-39 0 -39 53v186h-65v-174zM340 160h76v73h26v-73h82v141l-53 246h-84l-47 -246v-141zM416 291v39l12 102h4l10 -102v-39h-26zM524 600h68v115q14 -25 49 -25q94 0 94 156 t-98 155q-29 0 -64 -40v36h-49v-397zM555 160h78v170h22v-170h84v155l-30 43v7l30 41v100l-22 41h-162v-387zM586 793v102q12 31 43 31q43 0 43 -78q0 -88 -45 -88q-29 0 -41 33zM633 393v84h22v-84h-22zM750 844q0 -156 110 -156q113 0 113 156q0 160 -113 160 q-111 0 -110 -160zM770 160h78v73h24v-73h78v141l-49 246h-84l-47 -246v-141zM817 844q0 84 43 84q45 0 45 -84q0 -82 -45 -82q-43 0 -43 82zM848 291v39l10 102h6l8 -102v-39h-24zM983 160h162l22 43v127l-16 28v7l16 28v113l-22 41h-162v-387zM1049 846q0 88 45 88 q27 0 39 -33v-104q-12 -29 -41 -29q-43 0 -43 78zM1063 233v97h22v-97h-22zM1063 393v84h22v-84h-22zM1200 160h80v387h-80v-387zM1214 774q2 -86 93 -86q45 0 70.5 26.5t25.5 82.5h-31q-6 -39 -51 -39q-41 0 -41 28q0 37 41 37h20v37h-20q-41 0 -41 35q0 33 41 33 q35 0 51 -41h31v110h-31v-47q-23 53 -67 54q-88 0 -88 -89q0 -55 45 -73q-47 -18 -48 -68zM1311 160h131v86h-53v80h53v67h-53v72h53v82h-131v-387zM1425 696h91v58h-29v133q0 41 29 41q12 0 24 -13l23 68q-16 14 -35 16q-43 0 -64 -49v47h-39v-301zM1530 160h80v159h49v68 h-49v78h49v82h-129v-387zM1544 696h144v58h-39v125q0 47 39 47q31 0 30 -47v-183h105v58h-39v125q0 45 39 45q31 0 30 -45v-183h68v193q0 111 -96 110q-49 0 -64 -49q-18 49 -57 49q-35 0 -55 -49v47h-66v-243h-39v-58zM1692 203l20 -43h137l25 43v303l-23 41h-139l-20 -41 v-303zM1769 233v244h23v-244h-23zM1905 160h65v250h6l19 -250h119v387h-66v-250h-6l-23 250h-114v-387zM1931 934h31v-238h70v301h-101v-63zM2048 844q0 -154 104 -154q74 0 93 119h-33q-6 -47 -51 -47q-47 0 -47 82q0 84 47 84t51 -56h33v121h-33v-43q-25 53 -62 54 q-102 0 -102 -160zM2136 465h43v-305h80v305h43v82h-166v-82zM2324 203l23 -43h133l23 43v147l-27 43l-72 17v67h21v-49h78v78l-21 41h-135l-23 -41v-135l25 -41l76 -19v-78h-21v58h-80v-88z" />
<glyph unicode="_" horiz-adv-x="888" d="M-96 -332l67 152h764l-65 -152h-766z" />
<glyph unicode="`" horiz-adv-x="1042" d="M1096 1698h223l67 -225h-167z" />
<glyph unicode="a" horiz-adv-x="800" d="M154 143q0 78 55 203l29 64q63 143 165 237q123 113 259 113q100 0 153 -68l19 41h188l-90 -203q-41 -94 -125 -282q-8 -18 -8 -33q0 -27 30 -27q61 0 150.5 65.5t118.5 125.5l55 -72q-53 -117 -229 -213q-168 -94 -312 -94q-66 0 -75 61q-73 -65 -163 -65h-3 q-217 0 -217 147zM401 152q0 -29 25 -29q43 0 78 78l178 401q4 8 4 12q0 25 -35 25q-45 0 -61 -39l-174 -389q-14 -33 -15 -59z" />
<glyph unicode="b" horiz-adv-x="774" d="M154 164q0 59 34 135l459 1030h297l-270 -608q63 35 123 35q63 0 100 -40t37 -104q0 -78 -90 -280q-8 -18 -8 -33q0 -35 45 -35q70 0 142.5 56.5t102.5 125.5l78 -59q-12 -14 -37 -45q-186 -221 -358 -221q-63 0 -78 43q-63 -78 -174 -125q-98 -43 -186 -43 q-217 0 -217 168zM428 145q0 -28 21 -28h2q44 0 81 84l181 401q2 8 2 12q0 25 -35 25q-43 0 -59 -39l-181 -399q-12 -33 -12 -56z" />
<glyph unicode="c" horiz-adv-x="667" d="M129 145q0 76 57 201l66 148q49 111 133 184q94 82 203 82h203q131 0 131 -103q0 -23 -7 -53l-305 -110l49 108l3 12q0 25 -35 25q-43 0 -60 -39l-174 -389q-14 -33 -14 -57q0 -31 24 -31h60q197 0 375 117q104 70 137 139l53 -72v-2q-51 -117 -233 -215 q-168 -90 -289 -90h-156q-221 0 -221 145z" />
<glyph unicode="d" horiz-adv-x="798" d="M172 139q0 76 55 201l29 66q63 143 166 237q121 111 258 111q39 0 74 -13l262 588h297l-496 -1114q-2 -4 -2 -8q0 -23 27 -23q53 0 141 60q47 33 133 131l53 -74v-2q-51 -113 -227 -211q-168 -92 -311 -92q-90 0 -94 57q-80 -61 -148 -61q-217 0 -217 147zM414 141 q0 -24 20 -24h2q39 0 64 55l198 446q-8 12 -30 13q-45 0 -62 -37l-180 -408q-12 -27 -12 -45z" />
<glyph unicode="e" horiz-adv-x="655" d="M129 145q0 76 57 201l66 148q49 111 133 184q94 82 203 82h203q131 0 131 -101q0 -61 -72 -223q-51 -117 -203 -117h-205l-49 -108q-14 -33 -14 -57q0 -31 24 -31h60q199 0 375 117q104 72 137 139l53 -72v-2q-51 -117 -233 -215q-168 -90 -289 -90h-156q-221 0 -221 145 zM492 434h92l75 168l3 12q0 25 -35 25q-43 0 -60 -39z" />
<glyph unicode="f" horiz-adv-x="612" d="M-16 -207q0 43 22 96l545 1223q49 109 149 168q92 53 203 53q76 0 139 -28q76 -35 76 -95q0 -20 -10 -43l-238 -532q-39 -88 -104 -170q-82 -102 -160 -135q16 -90 96 -90q47 0 97 39l55 -74q-37 -41 -100.5 -67.5t-110.5 -26.5q-25 0 -45 6q18 -20 18 -37q0 -14 -16 -55 l-86 -191q-35 -80 -160 -127q-102 -39 -192 -39q-178 0 -178 125zM281 -172q0 -16 20 -16h3q40 0 52 30l82 183q31 68 31 122q0 45 -27 54q-53 -119 -157 -359q-4 -8 -4 -14zM559 459q82 22 152 176l233 524q2 4 2 8q0 23 -33 23q-29 0 -43 -31q-102 -233 -311 -700z" />
<glyph unicode="g" horiz-adv-x="761" d="M37 -205q0 35 18 78q66 147 248 193q-133 25 -133 163q0 80 45 181q63 143 166 237q121 113 256 113q100 0 156 -68l18 41h188l-202 -452q-20 -43 -21 -66q0 -27 31 -27q59 0 149.5 65.5t116.5 125.5l55 -72q-39 -88 -162.5 -174t-211.5 -86q-31 0 -54 12l-73 -170 q-49 -113 -166 -176q-104 -57 -221 -57q-84 0 -143.5 36t-59.5 103zM233 -166q0 -22 28 -22h3h2q29 0 43 30q29 70 92 207q-72 -49 -106 -94q-25 -33 -59 -113q-2 -4 -3 -8zM416 240q0 -27 22 -27q47 0 86 86l135 303l3 12q0 25 -35 25q-43 0 -60 -39l-137 -307 q-14 -31 -14 -53z" />
<glyph unicode="h" horiz-adv-x="806" d="M47 0l592 1329h297l-262 -586q80 43 147 43q143 0 144 -149q0 -74 -37 -158l-103 -231q-10 -20 -10 -33q0 -27 33 -27q59 0 149 65.5t117 125.5l55 -72v-2q-51 -113 -227 -211q-168 -94 -311 -94q-33 0 -66 16q-63 33 -63 101q0 37 18 84l180 401q4 12 5 21q0 23 -27 22 q-47 0 -68 -45l-266 -600h-297z" />
<glyph unicode="i" horiz-adv-x="446" d="M147 133q0 35 15 68l268 600l225 -125l-190 -428q-8 -20 -8 -33q0 -27 30 -27q61 0 150.5 65.5t118.5 125.5l55 -72l-2 -2q-49 -113 -227 -211q-168 -94 -312 -94q-53 0 -88 40t-35 93zM496 983q0 16 8 37q25 53 96 86q59 29 119 29q47 0 84 -20.5t37 -59.5 q-1 -17 -9 -35q-25 -55 -96 -88q-59 -27 -119 -27q-47 0 -83.5 20.5t-36.5 57.5z" />
<glyph unicode="j" horiz-adv-x="526" d="M-154 -199q0 35 19 74q55 123 151 217q117 113 230 113h16l264 596l228 -125l-191 -428q-8 -20 -8 -33q0 -27 31 -27q61 0 150 65.5t118 125.5l53 -72v-2q-45 -102 -196 -192q-133 -80 -254 -103l-54 -121q-47 -106 -151 -168q-96 -57 -207 -57q-82 0 -137 33 q-61 39 -62 104zM10 -166q0 -22 28 -22h3h2q29 0 43 30q27 63 84 193q-37 -10 -98.5 -88t-61.5 -113zM592 983q0 16 8 37q25 53 96 86q61 29 121 29q45 0 83 -20.5t38 -59.5q0 -17 -8 -35q-25 -55 -96 -88q-61 -27 -119 -27q-47 0 -82 19q-41 23 -41 59z" />
<glyph unicode="k" horiz-adv-x="794" d="M53 0l592 1329h297l-278 -627q86 90 227 91q119 0 119 -82q0 -33 -19 -76q-39 -86 -162 -137q53 -14 54 -78q0 -59 -43 -156q-12 -27 -13 -45q0 -31 33 -31q61 0 147.5 65.5t114.5 125.5l56 -72l-2 -2q-49 -113 -228 -211q-168 -94 -311 -94q-31 0 -64 16q-65 33 -65 97 q0 55 46 149t46 113q0 23 -27 22q-45 0 -65 -45l-156 -352h-299zM586 526q18 12 112 37q68 18 82 51q2 6 2 11q0 20 -26 20q-68 0 -170 -119z" />
<glyph unicode="l" horiz-adv-x="583" d="M170 258l381 854q49 109 149 168q92 53 203 53q76 0 139 -28q76 -35 76 -95q0 -20 -10 -43l-133 -299q-119 -266 -402 -374l-106 -240q-10 -20 -10 -37q0 -45 63 -45q84 0 185.5 62.5t136.5 144.5l55 -74q-57 -129 -221 -221q-150 -84 -285 -84q-96 0 -162 51 q-71 54 -71 145q0 34 12 62zM662 692q81 20 151 176l131 291q0 4 2 8q0 20 -31 21q-33 0 -47 -33q-68 -154 -206 -463z" />
<glyph unicode="m" horiz-adv-x="1208" d="M45 0l356 801l189 -101q84 86 231 86q106 0 137 -94q102 94 248 94q143 0 144 -149q0 -74 -37 -158l-103 -231q-10 -20 -10 -33q0 -27 33 -27q59 0 149.5 65.5t116.5 125.5l55 -72v-2q-51 -113 -229 -211q-168 -94 -309 -94q-29 0 -60 14q-69 31 -69 101q0 39 18 86 l180 401q4 12 5 21q0 23 -27 22q-47 0 -68 -45l-266 -600h-297l268 602q4 12 5 21q0 23 -29 22q-45 0 -66 -45l-266 -600h-299z" />
<glyph unicode="n" horiz-adv-x="817" d="M53 0l357 801l188 -101q84 86 231 86q143 0 144 -149q0 -74 -37 -158l-105 -231q-8 -20 -8 -33q0 -27 31 -27q61 0 150.5 65.5t117.5 125.5l56 -72l-2 -2q-49 -113 -228 -211q-168 -94 -311 -94q-29 0 -62 16q-67 31 -67 99q0 39 20 86l181 401q4 12 4 21q0 23 -29 22 q-45 0 -66 -45l-266 -600h-299z" />
<glyph unicode="o" horiz-adv-x="722" d="M133 113q0 72 49 184l82 180q49 111 137 191q100 92 207 92h84q66 57 160 57q123 0 123 -102q0 -51 -37 -115q35 -8 57 -8q49 0 146 57l61 -59q-100 -104 -307 -125q-16 -37 -49 -113q-158 -352 -361 -352h-231q-121 0 -121 113zM389 139q0 -30 27 -30h2h1q48 0 79 65 l159 361q-36 10 -36 66q0 23 6 36q-33 -18 -47 -53l-183 -410q-8 -18 -8 -35zM776 670q0 -20 14.5 -38t32.5 -18q7 0 11 2q12 27 12 56q0 39 -27 39q-43 0 -43 -41z" />
<glyph unicode="p" horiz-adv-x="753" d="M-92 -330l473 1063h186l-26 -61q81 69 209 69h4q180 0 180 -127q0 -80 -90 -282q-8 -18 -8 -33q0 -35 45 -35q70 0 142.5 56.5t102.5 125.5l78 -59q-12 -14 -37 -43q-184 -223 -358 -223q-63 0 -78 43q-59 -70 -137 -115q-84 -47 -156 -47q-45 0 -82 18l-155 -350h-293z M428 145q0 -28 21 -28h2q44 0 81 84l181 401q2 8 2 12q0 25 -35 25q-43 0 -59 -39l-181 -399q-12 -33 -12 -56z" />
<glyph unicode="q" horiz-adv-x="753" d="M129 143q0 78 57 203l29 64q63 143 166 237q121 113 256 113q100 0 156 -68l18 41h188l-215 -485q-10 -20 -10 -33q0 -27 33 -27q59 0 149.5 65.5t116.5 125.5l55 -72v-2q-39 -86 -164.5 -173t-209.5 -87q-33 0 -54 14l-172 -383h-280l145 326q-25 -6 -45 -6 q-219 0 -219 147zM379 152q0 -29 24 -29q41 0 76 78l180 401l3 12q0 25 -35 25q-43 0 -60 -39l-174 -389q-14 -33 -14 -59z" />
<glyph unicode="r" horiz-adv-x="792" d="M109 133l303 678l438 -248q47 -27 47 -88q0 -14 -6 -24l-90 -205q-8 -18 -8 -33q0 -27 30 -27q61 0 150.5 65.5t118.5 127.5l55 -74q-51 -113 -227 -211q-168 -94 -312 -94q-129 0 -129 117q0 39 19 82l143 319q2 4 2 10q0 14 -16.5 25.5t-32.5 11.5q-25 0 -47 -51 q-98 -219 -324 -340q-68 -37 -114 -41z" />
<glyph unicode="s" horiz-adv-x="774" d="M-10 31l6 102q371 236 555 492q-6 20 -6 45q0 66 33 139q72 160 194 160q104 0 105 -66q0 -27 -15 -61q-27 -55 -112 -166q147 -182 147 -283q0 -131 -182 -260q96 0 219 76q115 70 176 180l51 -88q-96 -150 -284 -231q-162 -70 -328 -70q-270 0 -270 193v6 q-72 -82 -289 -168zM418 238q0 -59 33 -60q98 1 145 105q25 55 25 116t-25 95q-57 -63 -170 -193q-8 -33 -8 -63zM698 809q0 -10 2 -25q56 58 56 70q0 8 -15 8q-27 0 -36 -22q-6 -14 -7 -31z" />
<glyph unicode="t" horiz-adv-x="485" d="M143 123q0 39 19 82l194 436h-77l45 98h75l265 590h297l-263 -590h82l-45 -98h-82l-194 -436q-2 -6 -2 -10q0 -14 20 -15q63 0 157.5 66.5t123.5 132.5l55 -74q-51 -115 -227 -211q-168 -94 -312 -94q-61 0 -96 35t-35 88z" />
<glyph unicode="u" horiz-adv-x="778" d="M152 143q0 76 57 203l172 387h268l-233 -522q-14 -33 -15 -59q0 -29 25 -29q43 0 76 78l266 600l227 -125l-188 -428q-8 -18 -8 -33q0 -27 30 -27q59 0 149.5 65.5t117.5 125.5l55 -72v-2q-51 -113 -227 -211q-168 -94 -312 -94q-66 0 -75 61q-75 -65 -163 -65h-3 q-219 0 -219 147z" />
<glyph unicode="v" horiz-adv-x="712" d="M147 143q0 76 58 203l172 387h268l-233 -522q-14 -33 -15 -59q0 -29 25 -29q43 0 76 78l268 600l227 -125l-147 -330q-61 -139 -199 -242q-142 -108 -278 -108h-2q-219 0 -220 147z" />
<glyph unicode="w" horiz-adv-x="1062" d="M145 143q0 76 56 203l202 455l213 -125l-208 -465q-14 -33 -15 -59q0 -29 25 -29q43 0 78 78l194 434l209 -125l-133 -299q-14 -33 -14 -59q0 -29 24 -29q41 0 76 78l152 340q-23 14 -23 51q0 39 25 92q59 135 198 135q131 0 131 -104q0 -51 -39 -115q37 -8 60 -8 q47 0 143 57l62 -59q-100 -102 -308 -125l-88 -199q-82 -182 -334 -250q-70 -20 -110 -20q-129 0 -180 47q-90 -47 -176 -47q-219 0 -220 147zM1135 670q0 -20 14 -38t33 -18q6 0 12 2q10 27 10 56q0 39 -26 39q-43 0 -43 -41z" />
<glyph unicode="x" horiz-adv-x="522" d="M-6 68l252 196l141 316q10 23 10 38q0 37 -53 37q-72 0 -174 -118q47 98 119 161q86 74 178 74q78 0 121 -49t43 -125v-12l71 55h129l-215 -174q-2 -10 -96 -221q-10 -18 -10 -35q0 -29 35 -29q61 0 149 66.5t117 130.5l55 -74q-51 -115 -229 -211q-168 -94 -311 -94 q-127 0 -129 115l-74 -47h-129z" />
<glyph unicode="y" horiz-adv-x="757" d="M37 -205q0 37 18 78q66 147 248 193q-141 27 -141 149q0 76 53 195l174 391l211 -125l-170 -383q-14 -31 -14 -53q0 -27 22 -27q47 0 86 86l238 535l213 -158l-191 -428q-10 -20 -10 -33q0 -27 33 -27q59 0 149.5 65.5t116.5 125.5l55 -72v-2q-45 -102 -196 -192 q-131 -80 -252 -103l-53 -121q-49 -113 -166 -176q-104 -57 -221 -57q-84 0 -143.5 36t-59.5 103zM233 -166q0 -22 28 -22h3h2q29 0 43 30q29 70 92 207q-72 -49 -106 -94q-25 -33 -59 -113q-2 -4 -3 -8z" />
<glyph unicode="z" horiz-adv-x="677" d="M109 117q0 53 36 133q51 117 164 166q94 25 193.5 53.5t132.5 99.5q8 18 8 33q0 45 -55 45h-174l-41 113h418q66 0 107.5 -31t41.5 -84q0 -31 -16 -70q-43 -96 -156 -151q-29 -12 -203 -70q-139 -47 -182 -143q-8 -18 -8 -35q0 -53 88 -53q127 0 278 63q180 78 234 193 l53 -72q-51 -119 -233 -215q-166 -92 -289 -92h-156q-106 0 -153 14q-88 25 -88 103z" />
<glyph unicode="~" horiz-adv-x="270" d="M625 1325l67 49h60l14 -28l41 28h53l-67 -49h-70l-12 29l-33 -29h-53z" />
<glyph unicode="&#xa1;" horiz-adv-x="593" d="M-182 -475q12 31 51 58.5t70 27.5h26q29 0 74 24.5t55 47.5l324 725l366 122l-376 -847q-86 -188 -398 -189h-172q-35 0 -20 31zM532 672q0 18 9 37q25 51 92 84q61 31 125 30q45 0 83 -20.5t38 -59.5q0 -35 -33 -71q-70 -78 -191 -78q-47 0 -82 18q-41 23 -41 60z" />
<glyph unicode="&#xa8;" horiz-adv-x="1189" d="M1038 1561q0 14 9 32q18 41 61 65.5t86 24.5q74 0 74 -57q0 -17 -6 -33q-18 -41 -62.5 -65.5t-85.5 -24.5q-76 0 -76 58zM1264 1561q0 14 8 32q16 39 61 64.5t86 25.5q74 0 74 -57q0 -17 -8 -33q-16 -41 -60.5 -65.5t-85.5 -24.5q-76 0 -75 58z" />
<glyph unicode="&#xa9;" horiz-adv-x="1300" d="M360 567q0 117 45.5 221.5t122 181.5t181 122t221.5 45t221 -45t181 -122t122 -181.5t45 -221.5t-45 -221t-122 -181t-181 -122t-221 -45t-221.5 45t-181 122t-122 181t-45.5 221zM428 565q0 -104 40 -196.5t107.5 -160t159.5 -107.5t197 -40q104 0 196.5 40t161 107.5 t108.5 160t40 196.5t-40 196.5t-108.5 162t-161 109.5t-196.5 40t-196.5 -40t-160 -109.5t-107.5 -162t-40 -196.5zM637 559q0 76 19.5 141.5t56.5 113.5t90 74.5t119 26.5q160 0 235 -137l-106 -69q-53 74 -129 73q-72 0 -115 -59t-43 -164q0 -98 46 -159.5t114 -61.5 q35 0 68.5 17.5t58.5 45.5l102 -69q-78 -127 -231 -127q-61 0 -113.5 26.5t-90.5 74.5t-59.5 112.5t-21.5 140.5z" />
<glyph unicode="&#xab;" horiz-adv-x="765" d="M84 555v121l319 166v-127l-208 -97l208 -98v-123zM387 555v121l320 166v-127l-209 -97l209 -98v-123z" />
<glyph unicode="&#xad;" d="M332 641l45 98h385l-43 -98h-387z" />
<glyph unicode="&#xae;" horiz-adv-x="1105" d="M434 723q0 88 34 167t95.5 138t145.5 94t184 35t186 -33.5t148.5 -92t97.5 -137.5t35 -171q0 -86 -36 -164t-98.5 -137.5t-148.5 -95t-184 -35.5q-100 0 -184 35.5t-145.5 95t-95.5 137.5t-34 164zM520 723q0 -66 25.5 -129.5t74 -112.5t117 -79.5t154.5 -30.5 q80 0 152.5 26.5t126 74.5t85 112.5t31.5 138.5q0 63 -29.5 126.5t-82 113t-125 80t-158.5 30.5t-154.5 -30.5t-117 -80t-74 -113t-25.5 -126.5zM750 481v469h168q66 0 105.5 -39t39.5 -110q0 -47 -18.5 -77t-59.5 -56l84 -187h-98l-80 172h-49v-172h-92zM842 750h78 q49 0 49 51q0 55 -49 55h-78v-106z" />
<glyph unicode="&#xb4;" horiz-adv-x="1042" d="M1030 1473l266 225h224l-322 -225h-168z" />
<glyph unicode="&#xb8;" horiz-adv-x="1052" d="M227 -342l19 43q33 -4 47 -4q47 0 98 31.5t72 78.5q6 14 6 29q0 45 -59 45q-8 0 -21 -2l189 178h61l-86 -80q76 -20 76 -83q-1 -27 -17 -62q-35 -82 -127 -133q-84 -47 -168 -47q-39 0 -90 6z" />
<glyph unicode="&#xbb;" horiz-adv-x="790" d="M106 397v127l209 99l-209 96v123l320 -158v-121zM410 397v127l208 99l-208 96v123l319 -158v-121z" />
<glyph unicode="&#xbf;" horiz-adv-x="991" d="M-186 -326q0 27 14 58l47 106q82 182 381 326q55 25 113 49q70 39 88 80l121 268l256 -125l-64 -143q-31 -70 -82 -107q-37 -29 -122 -60.5t-212 -113.5q-147 -96 -174 -155l-45 -101q-10 -25 -10 -43q0 -66 102 -65q45 0 139.5 29.5t139.5 29.5q84 0 158 -78l-50 -108 q-78 55 -141 55q-23 0 -137 -35q-74 -20 -146 -20q-131 0 -227 24q-150 39 -149 129zM641 700q0 19 8 37q25 53 96 86q59 29 119 29q47 0 84 -20.5t37 -59.5q0 -16 -8 -35q-25 -55 -96 -88q-61 -27 -119 -26q-47 0 -84 20.5t-37 56.5z" />
<glyph unicode="&#xc0;" horiz-adv-x="976" d="M135 125q0 57 33 131l364 817q57 129 195 201q121 63 256 63q178 0 238 -100l41 92h215l-502 -1124q-2 -6 -2 -10q0 -14 20 -15q63 0 156.5 66.5t124.5 132.5l55 -74q-51 -113 -227 -211q-168 -94 -311 -94q-119 0 -119 121q0 18 4 39q-164 -160 -402 -160 q-139 0 -139 125zM442 162q0 -18 23 -19q27 0 72 23q162 80 219 213l268 600q16 41 16 90q0 135 -90 135q-47 0 -76 -63l-425 -957q-6 -12 -7 -22zM1157 1698h223l67 -225h-167z" />
<glyph unicode="&#xc1;" horiz-adv-x="976" d="M135 125q0 57 33 131l364 817q57 129 195 201q121 63 256 63q178 0 238 -100l41 92h215l-502 -1124q-2 -6 -2 -10q0 -14 20 -15q63 0 156.5 66.5t124.5 132.5l55 -74q-51 -113 -227 -211q-168 -94 -311 -94q-119 0 -119 121q0 18 4 39q-164 -160 -402 -160 q-139 0 -139 125zM442 162q0 -18 23 -19q27 0 72 23q162 80 219 213l268 600q16 41 16 90q0 135 -90 135q-47 0 -76 -63l-425 -957q-6 -12 -7 -22zM971 1473l266 225h224l-322 -225h-168z" />
<glyph unicode="&#xc2;" horiz-adv-x="976" d="M135 125q0 57 33 131l364 817q57 129 195 201q121 63 256 63q178 0 238 -100l41 92h215l-502 -1124q-2 -6 -2 -10q0 -14 20 -15q63 0 156.5 66.5t124.5 132.5l55 -74q-51 -113 -227 -211q-168 -94 -311 -94q-119 0 -119 121q0 18 4 39q-164 -160 -402 -160 q-139 0 -139 125zM442 162q0 -18 23 -19q27 0 72 23q162 80 219 213l268 600q16 41 16 90q0 135 -90 135q-47 0 -76 -63l-425 -957q-6 -12 -7 -22zM830 1483l239 209h267l55 -209h-170l-53 133l-168 -133h-170z" />
<glyph unicode="&#xc3;" horiz-adv-x="976" d="M135 125q0 57 33 131l364 817q57 129 195 201q121 63 256 63q178 0 238 -100l41 92h215l-502 -1124q-2 -6 -2 -10q0 -14 20 -15q63 0 156.5 66.5t124.5 132.5l55 -74q-51 -113 -227 -211q-168 -94 -311 -94q-119 0 -119 121q0 18 4 39q-164 -160 -402 -160 q-139 0 -139 125zM442 162q0 -18 23 -19q27 0 72 23q162 80 219 213l268 600q16 41 16 90q0 135 -90 135q-47 0 -76 -63l-425 -957q-6 -12 -7 -22zM952 1556q70 145 199 146q49 0 107.5 -39t86.5 -39q51 0 103 78h20q-66 -150 -198 -150q-51 0 -109.5 40t-85.5 40 q-47 0 -100 -76h-23z" />
<glyph unicode="&#xc4;" horiz-adv-x="976" d="M135 125q0 57 33 131l364 817q57 129 195 201q121 63 256 63q178 0 238 -100l41 92h215l-502 -1124q-2 -6 -2 -10q0 -14 20 -15q63 0 156.5 66.5t124.5 132.5l55 -74q-51 -113 -227 -211q-168 -94 -311 -94q-119 0 -119 121q0 18 4 39q-164 -160 -402 -160 q-139 0 -139 125zM442 162q0 -18 23 -19q27 0 72 23q162 80 219 213l268 600q16 41 16 90q0 135 -90 135q-47 0 -76 -63l-425 -957q-6 -12 -7 -22zM938 1561q0 14 9 32q18 41 61 65.5t86 24.5q74 0 74 -57q0 -17 -6 -33q-18 -41 -62.5 -65.5t-85.5 -24.5q-76 0 -76 58z M1164 1561q0 14 8 32q16 39 61 64.5t86 25.5q74 0 74 -57q0 -17 -8 -33q-16 -41 -60.5 -65.5t-85.5 -24.5q-76 0 -75 58z" />
<glyph unicode="&#xc5;" horiz-adv-x="976" d="M135 125q0 57 33 131l364 817q57 129 195 201q121 63 256 63q178 0 238 -100l41 92h215l-502 -1124q-2 -6 -2 -10q0 -14 20 -15q63 0 156.5 66.5t124.5 132.5l55 -74q-51 -113 -227 -211q-168 -94 -311 -94q-119 0 -119 121q0 18 4 39q-164 -160 -402 -160 q-139 0 -139 125zM442 162q0 -18 23 -19q27 0 72 23q162 80 219 213l268 600q16 41 16 90q0 135 -90 135q-47 0 -76 -63l-425 -957q-6 -12 -7 -22zM988 1534q0 16 10 37q27 63 117 100q70 29 139 29q57 0 100 -21q53 -27 53 -69q0 -19 -8 -39q-29 -61 -117 -98 q-72 -31 -143 -31q-55 0 -98 22q-53 25 -53 70zM1063 1546q0 -57 99 -57q43 0 90 20q55 23 73 62q6 12 7 24q0 57 -99 58q-43 0 -90 -19q-55 -23 -74 -63q-6 -12 -6 -25z" />
<glyph unicode="&#xc7;" horiz-adv-x="737" d="M147 -342l19 43q33 -4 47 -4q47 0 98 31.5t72 78.5q6 14 6 29q0 45 -59 45q-8 0 -21 -2l189 178h61l-86 -80q76 -20 76 -83q-1 -27 -17 -62q-35 -82 -127 -133q-84 -47 -168 -47q-39 0 -90 6zM166 162q0 74 49 184l301 678q133 299 385 299h254q129 0 129 -100 q0 -25 -6 -56l-305 -110l49 110q2 4 2 9q0 27 -59 26q-68 0 -84 -37l-426 -954q-16 -41 -17 -57q0 -31 66 -31q219 0 397 117q104 72 135 139l56 -72l-2 -2q-51 -117 -234 -215q-168 -90 -289 -90h-155q-246 0 -246 162z" />
<glyph unicode="&#xc8;" horiz-adv-x="745" d="M137 1270q0 59 56 59h497q72 0 111 -33q123 43 262 43q240 0 240 -135q0 -16 -5 -37l-305 -110l49 110q2 4 2 9q0 31 -55 30q-72 0 -106 -80l-76 -168q-10 -23 -10 -43q0 -84 139 -163l-33 -74q-258 -82 -319 -221l-111 -246q-16 -39 -16 -57q0 -33 67 -33q137 0 291 61 q188 76 242 197l55 -72v-2q-51 -117 -233 -215q-168 -90 -289 -90h-156q-246 0 -246 162q0 74 50 184l38 88q47 106 162 189q104 76 224 102q-66 14 -112 60t-46 110q2 55 63 192q14 35 31 64q-35 61 -57 61h-355q-49 0 -49 58zM955 1698h223l67 -225h-167z" />
<glyph unicode="&#xc9;" horiz-adv-x="745" d="M137 1270q0 59 56 59h497q72 0 111 -33q123 43 262 43q240 0 240 -135q0 -16 -5 -37l-305 -110l49 110q2 4 2 9q0 31 -55 30q-72 0 -106 -80l-76 -168q-10 -23 -10 -43q0 -84 139 -163l-33 -74q-258 -82 -319 -221l-111 -246q-16 -39 -16 -57q0 -33 67 -33q137 0 291 61 q188 76 242 197l55 -72v-2q-51 -117 -233 -215q-168 -90 -289 -90h-156q-246 0 -246 162q0 74 50 184l38 88q47 106 162 189q104 76 224 102q-66 14 -112 60t-46 110q2 55 63 192q14 35 31 64q-35 61 -57 61h-355q-49 0 -49 58zM909 1473l266 225h224l-322 -225h-168z" />
<glyph unicode="&#xca;" horiz-adv-x="745" d="M137 1270q0 59 56 59h497q72 0 111 -33q123 43 262 43q240 0 240 -135q0 -16 -5 -37l-305 -110l49 110q2 4 2 9q0 31 -55 30q-72 0 -106 -80l-76 -168q-10 -23 -10 -43q0 -84 139 -163l-33 -74q-258 -82 -319 -221l-111 -246q-16 -39 -16 -57q0 -33 67 -33q137 0 291 61 q188 76 242 197l55 -72v-2q-51 -117 -233 -215q-168 -90 -289 -90h-156q-246 0 -246 162q0 74 50 184l38 88q47 106 162 189q104 76 224 102q-66 14 -112 60t-46 110q2 55 63 192q14 35 31 64q-35 61 -57 61h-355q-49 0 -49 58zM830 1483l239 209h267l55 -209h-170l-53 133 l-168 -133h-170z" />
<glyph unicode="&#xcb;" horiz-adv-x="745" d="M137 1270q0 59 56 59h497q72 0 111 -33q123 43 262 43q240 0 240 -135q0 -16 -5 -37l-305 -110l49 110q2 4 2 9q0 31 -55 30q-72 0 -106 -80l-76 -168q-10 -23 -10 -43q0 -84 139 -163l-33 -74q-258 -82 -319 -221l-111 -246q-16 -39 -16 -57q0 -33 67 -33q137 0 291 61 q188 76 242 197l55 -72v-2q-51 -117 -233 -215q-168 -90 -289 -90h-156q-246 0 -246 162q0 74 50 184l38 88q47 106 162 189q104 76 224 102q-66 14 -112 60t-46 110q2 55 63 192q14 35 31 64q-35 61 -57 61h-355q-49 0 -49 58zM938 1561q0 14 9 32q18 41 61 65.5t86 24.5 q74 0 74 -57q0 -17 -6 -33q-18 -41 -62.5 -65.5t-85.5 -24.5q-76 0 -76 58zM1164 1561q0 14 8 32q16 39 61 64.5t86 25.5q74 0 74 -57q0 -17 -8 -33q-16 -41 -60.5 -65.5t-85.5 -24.5q-76 0 -75 58z" />
<glyph unicode="&#xcc;" d="M117 0l506 1141q4 6 4 14q0 20 -22.5 38.5t-45.5 18.5h-354q-51 0 -51 58q0 59 55 59h500q246 0 245 -110q0 -35 -20 -78l-506 -1141h-311zM688 1698h223l67 -225h-167z" />
<glyph unicode="&#xcd;" d="M117 0l506 1141q4 6 4 14q0 20 -22.5 38.5t-45.5 18.5h-354q-51 0 -51 58q0 59 55 59h500q246 0 245 -110q0 -35 -20 -78l-506 -1141h-311zM704 1473l266 225h224l-322 -225h-168z" />
<glyph unicode="&#xce;" d="M117 0l506 1141q4 6 4 14q0 20 -22.5 38.5t-45.5 18.5h-354q-51 0 -51 58q0 59 55 59h500q246 0 245 -110q0 -35 -20 -78l-506 -1141h-311zM584 1483l239 209h267l55 -209h-170l-53 133l-168 -133h-170z" />
<glyph unicode="&#xcf;" d="M117 0l506 1141q4 6 4 14q0 20 -22.5 38.5t-45.5 18.5h-354q-51 0 -51 58q0 59 55 59h500q246 0 245 -110q0 -35 -20 -78l-506 -1141h-311zM671 1561q0 14 9 32q18 41 61 65.5t86 24.5q74 0 74 -57q0 -17 -6 -33q-18 -41 -62.5 -65.5t-85.5 -24.5q-76 0 -76 58zM897 1561 q0 14 8 32q16 39 61 64.5t86 25.5q74 0 74 -57q0 -17 -8 -33q-16 -41 -60.5 -65.5t-85.5 -24.5q-76 0 -75 58z" />
<glyph unicode="&#xd0;" horiz-adv-x="1107" d="M170 0l506 1141q4 6 4 14q0 20 -23.5 38.5t-44.5 18.5h-354q-51 0 -51 58q0 59 55 59h498q190 0 233 -59q84 66 250 65q98 0 176 -30q96 -39 97 -115q0 -27 -15 -60l-352 -792q-80 -178 -297 -268q-168 -70 -367 -70h-315zM334 588l67 149h498l-65 -149h-500zM557 162 q0 -18 23 -19q27 0 75 25q158 82 215 211l324 727q10 23 10 41q0 68 -82 67q-100 0 -149 -108l-410 -922q-6 -12 -6 -22z" />
<glyph unicode="&#xd1;" horiz-adv-x="1013" d="M98 0l508 1141q2 6 2 14q0 20 -22.5 38.5t-44.5 18.5h-355q-49 0 -49 58q0 59 56 59h497q203 0 240 -72q145 82 284 82q80 0 152 -36q80 -43 80 -111q0 -25 -10 -51l-418 -936q-2 -6 -2 -10q0 -14 20 -15q63 0 157.5 66.5t123.5 132.5l55 -74q-51 -115 -227 -211 q-168 -94 -311 -94q-55 0 -97.5 35t-42.5 86q0 27 13 53l430 967q10 20 10 37q0 27 -29 26q-66 0 -157 -82q-84 -74 -115 -143l-436 -979h-312zM973 1556q70 145 199 146q49 0 107.5 -39t86.5 -39q51 0 103 78h20q-66 -150 -198 -150q-51 0 -109.5 40t-85.5 40 q-47 0 -100 -76h-23z" />
<glyph unicode="&#xd2;" horiz-adv-x="976" d="M145 162q0 41 23 94l364 817q59 131 195 201q115 59 254 59q86 0 164 -24q66 47 147 47q123 0 123 -103q0 -51 -37 -112q33 -10 58 -11q68 0 145 58q8 6 18 6q16 0 33 -14.5t17 -30.5q-1 -11 -7 -19q-72 -102 -309 -126l-334 -748q-115 -256 -520 -256q-334 0 -334 162z M487 256q0 -72 88 -72q95 1 142 107l307 688q16 41 16 90q0 135 -90 135q-47 0 -76 -63l-378 -850q-8 -18 -9 -35zM975 1698h223l67 -225h-167zM1217 1208q0 -20 14 -36.5t33 -16.5q4 0 10 2q12 25 12 53q0 39 -26 39q-43 0 -43 -41z" />
<glyph unicode="&#xd3;" horiz-adv-x="976" d="M145 162q0 41 23 94l364 817q59 131 195 201q115 59 254 59q86 0 164 -24q66 47 147 47q123 0 123 -103q0 -51 -37 -112q33 -10 58 -11q68 0 145 58q8 6 18 6q16 0 33 -14.5t17 -30.5q-1 -11 -7 -19q-72 -102 -309 -126l-334 -748q-115 -256 -520 -256q-334 0 -334 162z M487 256q0 -72 88 -72q95 1 142 107l307 688q16 41 16 90q0 135 -90 135q-47 0 -76 -63l-378 -850q-8 -18 -9 -35zM930 1473l266 225h224l-322 -225h-168zM1217 1208q0 -20 14 -36.5t33 -16.5q4 0 10 2q12 25 12 53q0 39 -26 39q-43 0 -43 -41z" />
<glyph unicode="&#xd4;" horiz-adv-x="976" d="M145 162q0 41 23 94l364 817q59 131 195 201q115 59 254 59q86 0 164 -24q66 47 147 47q123 0 123 -103q0 -51 -37 -112q33 -10 58 -11q68 0 145 58q8 6 18 6q16 0 33 -14.5t17 -30.5q-1 -11 -7 -19q-72 -102 -309 -126l-334 -748q-115 -256 -520 -256q-334 0 -334 162z M487 256q0 -72 88 -72q95 1 142 107l307 688q16 41 16 90q0 135 -90 135q-47 0 -76 -63l-378 -850q-8 -18 -9 -35zM830 1483l239 209h267l55 -209h-170l-53 133l-168 -133h-170zM1217 1208q0 -20 14 -36.5t33 -16.5q4 0 10 2q12 25 12 53q0 39 -26 39q-43 0 -43 -41z" />
<glyph unicode="&#xd5;" horiz-adv-x="976" d="M145 162q0 41 23 94l364 817q59 131 195 201q115 59 254 59q86 0 164 -24q66 47 147 47q123 0 123 -103q0 -51 -37 -112q33 -10 58 -11q68 0 145 58q8 6 18 6q16 0 33 -14.5t17 -30.5q-1 -11 -7 -19q-72 -102 -309 -126l-334 -748q-115 -256 -520 -256q-334 0 -334 162z M487 256q0 -72 88 -72q95 1 142 107l307 688q16 41 16 90q0 135 -90 135q-47 0 -76 -63l-378 -850q-8 -18 -9 -35zM932 1556q70 145 199 146q49 0 107.5 -39t86.5 -39q51 0 103 78h20q-66 -150 -198 -150q-51 0 -109.5 40t-85.5 40q-47 0 -100 -76h-23zM1217 1208 q0 -20 14 -36.5t33 -16.5q4 0 10 2q12 25 12 53q0 39 -26 39q-43 0 -43 -41z" />
<glyph unicode="&#xd6;" horiz-adv-x="976" d="M145 162q0 41 23 94l364 817q59 131 195 201q115 59 254 59q86 0 164 -24q66 47 147 47q123 0 123 -103q0 -51 -37 -112q33 -10 58 -11q68 0 145 58q8 6 18 6q16 0 33 -14.5t17 -30.5q-1 -11 -7 -19q-72 -102 -309 -126l-334 -748q-115 -256 -520 -256q-334 0 -334 162z M487 256q0 -72 88 -72q95 1 142 107l307 688q16 41 16 90q0 135 -90 135q-47 0 -76 -63l-378 -850q-8 -18 -9 -35zM938 1561q0 14 9 32q18 41 61 65.5t86 24.5q74 0 74 -57q0 -17 -6 -33q-18 -41 -62.5 -65.5t-85.5 -24.5q-76 0 -76 58zM1164 1561q0 14 8 32q16 39 61 64.5 t86 25.5q74 0 74 -57q0 -17 -8 -33q-16 -41 -60.5 -65.5t-85.5 -24.5q-76 0 -75 58zM1217 1208q0 -20 14 -36.5t33 -16.5q4 0 10 2q12 25 12 53q0 39 -26 39q-43 0 -43 -41z" />
<glyph unicode="&#xd8;" horiz-adv-x="976" d="M172 162q0 41 23 94l364 817q57 131 193 201q117 59 254 59q88 0 163 -24q66 47 150 47q123 0 123 -103q0 -51 -39 -112q35 -10 59 -11q68 0 146 58q6 6 16 6q18 0 34.5 -14.5t16.5 -30.5q0 -11 -6 -19q-72 -102 -309 -126l-336 -748q-113 -256 -518 -256 q-334 0 -334 162zM516 231q14 -47 84 -47q96 1 143 107l164 371zM649 578l416 456q2 17 2 35q0 135 -92 135q-47 0 -76 -63zM1241 1208q0 -20 14.5 -36.5t32.5 -16.5q6 0 12 2q10 25 11 53q0 39 -27 39q-43 0 -43 -41z" />
<glyph unicode="&#xd9;" horiz-adv-x="1013" d="M137 1270q0 59 56 59h497q246 0 246 -110q0 -35 -18 -78l-426 -957q-6 -12 -7 -22q0 -18 23 -19q25 0 67 21q164 80 224 215l424 950h297l-502 -1124q-2 -6 -2 -10q0 -14 20 -15q63 0 157.5 66.5t123.5 132.5l55 -74q-51 -115 -227 -211q-168 -94 -311 -94 q-119 0 -119 121q0 18 4 39q-164 -160 -402 -160q-139 0 -139 125q0 57 33 131l395 885q2 6 2 14q0 20 -22.5 38.5t-44.5 18.5h-355q-49 0 -49 58zM1037 1698h223l67 -225h-167z" />
<glyph unicode="&#xda;" horiz-adv-x="1013" d="M137 1270q0 59 56 59h497q246 0 246 -110q0 -35 -18 -78l-426 -957q-6 -12 -7 -22q0 -18 23 -19q25 0 67 21q164 80 224 215l424 950h297l-502 -1124q-2 -6 -2 -10q0 -14 20 -15q63 0 157.5 66.5t123.5 132.5l55 -74q-51 -115 -227 -211q-168 -94 -311 -94 q-119 0 -119 121q0 18 4 39q-164 -160 -402 -160q-139 0 -139 125q0 57 33 131l395 885q2 6 2 14q0 20 -22.5 38.5t-44.5 18.5h-355q-49 0 -49 58zM950 1473l266 225h224l-322 -225h-168z" />
<glyph unicode="&#xdb;" horiz-adv-x="1013" d="M137 1270q0 59 56 59h497q246 0 246 -110q0 -35 -18 -78l-426 -957q-6 -12 -7 -22q0 -18 23 -19q25 0 67 21q164 80 224 215l424 950h297l-502 -1124q-2 -6 -2 -10q0 -14 20 -15q63 0 157.5 66.5t123.5 132.5l55 -74q-51 -115 -227 -211q-168 -94 -311 -94 q-119 0 -119 121q0 18 4 39q-164 -160 -402 -160q-139 0 -139 125q0 57 33 131l395 885q2 6 2 14q0 20 -22.5 38.5t-44.5 18.5h-355q-49 0 -49 58zM871 1483l239 209h267l55 -209h-170l-53 133l-168 -133h-170z" />
<glyph unicode="&#xdc;" horiz-adv-x="1013" d="M137 1270q0 59 56 59h497q246 0 246 -110q0 -35 -18 -78l-426 -957q-6 -12 -7 -22q0 -18 23 -19q25 0 67 21q164 80 224 215l424 950h297l-502 -1124q-2 -6 -2 -10q0 -14 20 -15q63 0 157.5 66.5t123.5 132.5l55 -74q-51 -115 -227 -211q-168 -94 -311 -94 q-119 0 -119 121q0 18 4 39q-164 -160 -402 -160q-139 0 -139 125q0 57 33 131l395 885q2 6 2 14q0 20 -22.5 38.5t-44.5 18.5h-355q-49 0 -49 58zM979 1561q0 14 9 32q18 41 61 65.5t86 24.5q74 0 74 -57q0 -17 -6 -33q-18 -41 -62.5 -65.5t-85.5 -24.5q-76 0 -76 58z M1205 1561q0 14 8 32q16 39 61 64.5t86 25.5q74 0 74 -57q0 -17 -8 -33q-16 -41 -60.5 -65.5t-85.5 -24.5q-76 0 -75 58z" />
<glyph unicode="&#xdd;" horiz-adv-x="972" d="M137 1270q0 59 56 59h497q246 0 246 -110q0 -35 -18 -78l-338 -756q-4 -14 -5 -23q0 -18 23 -18q55 0 152.5 75t121.5 130l349 780h311l-641 -1440q-49 -111 -158 -172q-98 -57 -213 -57q-76 0 -137 29q-74 35 -74 96q0 23 13 49l36 84q119 266 400 373l14 28 q-199 -119 -366 -118q-137 0 -138 123q0 57 33 131l305 686q2 6 2 14q0 20 -22.5 38.5t-44.5 18.5h-355q-49 0 -49 58zM483 -166q0 -20 31 -20q33 -1 47 32q35 84 109 248q-82 -20 -152 -176l-33 -76q-2 -4 -2 -8zM1012 1473l266 225h224l-322 -225h-168z" />
<glyph unicode="&#xdf;" horiz-adv-x="745" d="M98 0l504 1130q92 209 457 209q387 0 387 -145q0 -29 -14 -64l-48 -104q-49 -111 -159.5 -193.5t-229.5 -107.5q150 -43 150 -184q0 -51 -25 -107l-43 -96q-115 -260 -493 -324l96 219q63 53 98 107q14 25 56 117q14 33 14 63q0 96 -137 158l-301 -678h-312zM743 752 q267 102 314 206l67 148q8 23 9 41q0 68 -82 67q-100 0 -148 -108z" />
<glyph unicode="&#xe0;" horiz-adv-x="800" d="M154 143q0 78 55 203l29 64q63 143 165 237q123 113 259 113q100 0 153 -68l19 41h188l-90 -203q-41 -94 -125 -282q-8 -18 -8 -33q0 -27 30 -27q61 0 150.5 65.5t118.5 125.5l55 -72q-53 -117 -229 -213q-168 -94 -312 -94q-66 0 -75 61q-74 -66 -166 -65 q-217 0 -217 147zM401 152q0 -29 25 -29q43 0 78 78l178 401q4 8 4 12q0 25 -35 25q-45 0 -61 -39l-174 -389q-14 -33 -15 -59zM742 1086h223l67 -225h-167z" />
<glyph unicode="&#xe1;" horiz-adv-x="800" d="M154 143q0 78 55 203l29 64q63 143 165 237q123 113 259 113q100 0 153 -68l19 41h188l-90 -203q-41 -94 -125 -282q-8 -18 -8 -33q0 -27 30 -27q61 0 150.5 65.5t118.5 125.5l55 -72q-53 -117 -229 -213q-168 -94 -312 -94q-66 0 -75 61q-74 -66 -166 -65 q-217 0 -217 147zM401 152q0 -29 25 -29q43 0 78 78l178 401q4 8 4 12q0 25 -35 25q-45 0 -61 -39l-174 -389q-14 -33 -15 -59zM717 861l266 225h224l-322 -225h-168z" />
<glyph unicode="&#xe2;" horiz-adv-x="800" d="M154 143q0 78 55 203l29 64q63 143 165 237q123 113 259 113q100 0 153 -68l19 41h188l-90 -203q-41 -94 -125 -282q-8 -18 -8 -33q0 -27 30 -27q61 0 150.5 65.5t118.5 125.5l55 -72q-53 -117 -229 -213q-168 -94 -312 -94q-66 0 -75 61q-74 -66 -166 -65 q-217 0 -217 147zM401 152q0 -29 25 -29q43 0 78 78l178 401q4 8 4 12q0 25 -35 25q-45 0 -61 -39l-174 -389q-14 -33 -15 -59zM494 871l239 209h267l55 -209h-170l-53 133l-168 -133h-170z" />
<glyph unicode="&#xe3;" horiz-adv-x="800" d="M154 143q0 78 55 203l29 64q63 143 165 237q123 113 259 113q100 0 153 -68l19 41h188l-90 -203q-41 -94 -125 -282q-8 -18 -8 -33q0 -27 30 -27q61 0 150.5 65.5t118.5 125.5l55 -72q-53 -117 -229 -213q-168 -94 -312 -94q-66 0 -75 61q-74 -66 -166 -65 q-217 0 -217 147zM401 152q0 -29 25 -29q43 0 78 78l178 401q4 8 4 12q0 25 -35 25q-45 0 -61 -39l-174 -389q-14 -33 -15 -59zM596 944q70 145 199 146q49 0 107.5 -39t86.5 -39q51 0 103 78h20q-66 -150 -198 -150q-51 0 -109.5 40t-85.5 40q-47 0 -100 -76h-23z" />
<glyph unicode="&#xe4;" horiz-adv-x="800" d="M154 143q0 78 55 203l29 64q63 143 165 237q123 113 259 113q100 0 153 -68l19 41h188l-90 -203q-41 -94 -125 -282q-8 -18 -8 -33q0 -27 30 -27q61 0 150.5 65.5t118.5 125.5l55 -72q-53 -117 -229 -213q-168 -94 -312 -94q-66 0 -75 61q-74 -66 -166 -65 q-217 0 -217 147zM401 152q0 -29 25 -29q43 0 78 78l178 401q4 8 4 12q0 25 -35 25q-45 0 -61 -39l-174 -389q-14 -33 -15 -59zM622 949q0 14 9 32q18 41 61 65.5t86 24.5q74 0 74 -57q0 -17 -6 -33q-18 -41 -62.5 -65.5t-85.5 -24.5q-76 0 -76 58zM848 949q0 14 8 32 q16 39 61 64.5t86 25.5q74 0 74 -57q0 -17 -8 -33q-16 -41 -60.5 -65.5t-85.5 -24.5q-76 0 -75 58z" />
<glyph unicode="&#xe5;" horiz-adv-x="800" d="M154 143q0 78 55 203l29 64q63 143 165 237q123 113 259 113q100 0 153 -68l19 41h188l-90 -203q-41 -94 -125 -282q-8 -18 -8 -33q0 -27 30 -27q61 0 150.5 65.5t118.5 125.5l55 -72q-53 -117 -229 -213q-168 -94 -312 -94q-66 0 -75 61q-74 -66 -166 -65 q-217 0 -217 147zM401 152q0 -29 25 -29q43 0 78 78l178 401q4 8 4 12q0 25 -35 25q-45 0 -61 -39l-174 -389q-14 -33 -15 -59zM611 922q0 16 10 37q27 63 117 100q70 29 139 29q57 0 100 -21q53 -27 53 -69q0 -19 -8 -39q-29 -61 -117 -98q-72 -31 -143 -31q-55 0 -98 22 q-53 25 -53 70zM686 934q0 -57 99 -57q43 0 90 20q55 23 73 62q6 12 7 24q0 57 -99 58q-43 0 -90 -19q-55 -23 -74 -63q-6 -12 -6 -25z" />
<glyph unicode="&#xe6;" horiz-adv-x="1036" d="M123 143q0 78 55 203l29 64q66 143 168 237q121 113 256 113h530q131 0 131 -101q0 -63 -71 -223q-51 -117 -203 -117h-205l-49 -108q-14 -33 -14 -57q0 -31 24 -31h60q199 0 374 117q104 72 138 139l53 -72v-2q-51 -117 -234 -215q-168 -90 -288 -90h-295q-66 0 -74 61 q-78 -66 -166 -65q-219 0 -219 147zM373 152q0 -29 22 -29q43 0 78 78l195 438h-47q-43 0 -60 -39l-174 -389q-14 -33 -14 -59zM862 434h92l76 168q2 8 2 12q0 25 -35 25q-43 0 -59 -39z" />
<glyph unicode="&#xe7;" horiz-adv-x="641" d="M65 -342l19 43q33 -4 47 -4q47 0 98 31.5t72 78.5q6 14 6 29q0 45 -59 45q-8 0 -21 -2l189 178h61l-86 -80q76 -20 76 -83q-1 -27 -17 -62q-35 -82 -127 -133q-84 -47 -168 -47q-39 0 -90 6zM147 145q0 76 57 201l66 148q49 111 133 184q94 82 203 82h203q131 0 131 -103 q0 -23 -7 -53l-305 -110l49 108l3 12q0 25 -35 25q-43 0 -60 -39l-174 -389q-14 -33 -14 -57q0 -31 24 -31h60q197 0 375 117q104 70 137 139l53 -72v-2q-51 -117 -233 -215q-168 -90 -289 -90h-156q-221 0 -221 145z" />
<glyph unicode="&#xe8;" horiz-adv-x="655" d="M129 145q0 76 57 201l66 148q49 111 133 184q94 82 203 82h203q131 0 131 -101q0 -61 -72 -223q-51 -117 -203 -117h-205l-49 -108q-14 -33 -14 -57q0 -31 24 -31h60q199 0 375 117q104 72 137 139l53 -72v-2q-51 -117 -233 -215q-168 -90 -289 -90h-156q-221 0 -221 145 zM492 434h92l75 168l3 12q0 25 -35 25q-43 0 -60 -39zM598 1086h223l67 -225h-167z" />
<glyph unicode="&#xe9;" horiz-adv-x="655" d="M129 145q0 76 57 201l66 148q49 111 133 184q94 82 203 82h203q131 0 131 -101q0 -61 -72 -223q-51 -117 -203 -117h-205l-49 -108q-14 -33 -14 -57q0 -31 24 -31h60q199 0 375 117q104 72 137 139l53 -72v-2q-51 -117 -233 -215q-168 -90 -289 -90h-156q-221 0 -221 145 zM492 434h92l75 168l3 12q0 25 -35 25q-43 0 -60 -39zM573 861l266 225h224l-322 -225h-168z" />
<glyph unicode="&#xea;" horiz-adv-x="655" d="M129 145q0 76 57 201l66 148q49 111 133 184q94 82 203 82h203q131 0 131 -101q0 -61 -72 -223q-51 -117 -203 -117h-205l-49 -108q-14 -33 -14 -57q0 -31 24 -31h60q199 0 375 117q104 72 137 139l53 -72v-2q-51 -117 -233 -215q-168 -90 -289 -90h-156q-221 0 -221 145 zM432 871l239 209h267l55 -209h-170l-53 133l-168 -133h-170zM492 434h92l75 168l3 12q0 25 -35 25q-43 0 -60 -39z" />
<glyph unicode="&#xeb;" horiz-adv-x="655" d="M129 145q0 76 57 201l66 148q49 111 133 184q94 82 203 82h203q131 0 131 -101q0 -61 -72 -223q-51 -117 -203 -117h-205l-49 -108q-14 -33 -14 -57q0 -31 24 -31h60q199 0 375 117q104 72 137 139l53 -72v-2q-51 -117 -233 -215q-168 -90 -289 -90h-156q-221 0 -221 145 zM492 434h92l75 168l3 12q0 25 -35 25q-43 0 -60 -39zM540 949q0 14 9 32q18 41 61 65.5t86 24.5q74 0 74 -57q0 -17 -6 -33q-18 -41 -62.5 -65.5t-85.5 -24.5q-76 0 -76 58zM766 949q0 14 8 32q16 39 61 64.5t86 25.5q74 0 74 -57q0 -17 -8 -33q-16 -41 -60.5 -65.5 t-85.5 -24.5q-76 0 -75 58z" />
<glyph unicode="&#xec;" horiz-adv-x="446" d="M137 133q0 35 15 68l268 600l227 -125l-190 -428q-10 -20 -11 -33q0 -27 33 -27q59 0 149.5 65.5t116.5 125.5l56 -72v-2q-51 -113 -230 -211q-166 -94 -311 -94q-53 0 -88 40t-35 93zM475 1086h223l67 -225h-167z" />
<glyph unicode="&#xed;" horiz-adv-x="446" d="M137 133q0 35 15 68l268 600l227 -125l-190 -428q-10 -20 -11 -33q0 -27 33 -27q59 0 149.5 65.5t116.5 125.5l56 -72v-2q-51 -113 -230 -211q-166 -94 -311 -94q-53 0 -88 40t-35 93zM409 861l266 225h224l-322 -225h-168z" />
<glyph unicode="&#xee;" horiz-adv-x="446" d="M137 133q0 35 15 68l268 600l227 -125l-190 -428q-10 -20 -11 -33q0 -27 33 -27q59 0 149.5 65.5t116.5 125.5l56 -72v-2q-51 -113 -230 -211q-166 -94 -311 -94q-53 0 -88 40t-35 93zM289 871l239 209h267l55 -209h-170l-53 133l-168 -133h-170z" />
<glyph unicode="&#xef;" horiz-adv-x="446" d="M137 133q0 35 15 68l268 600l227 -125l-190 -428q-10 -20 -11 -33q0 -27 33 -27q59 0 149.5 65.5t116.5 125.5l56 -72v-2q-51 -113 -230 -211q-166 -94 -311 -94q-53 0 -88 40t-35 93zM397 949q0 14 9 32q18 41 61 65.5t86 24.5q74 0 74 -57q0 -17 -6 -33 q-18 -41 -62.5 -65.5t-85.5 -24.5q-76 0 -76 58zM623 949q0 14 8 32q16 39 61 64.5t86 25.5q74 0 74 -57q0 -17 -8 -33q-16 -41 -60.5 -65.5t-85.5 -24.5q-76 0 -75 58z" />
<glyph unicode="&#xf0;" horiz-adv-x="624" />
<glyph unicode="&#xf1;" horiz-adv-x="817" d="M53 0l357 801l188 -101q84 86 231 86q143 0 144 -149q0 -74 -37 -158l-105 -231q-8 -20 -8 -33q0 -27 31 -27q61 0 150.5 65.5t117.5 125.5l56 -72l-2 -2q-49 -113 -228 -211q-168 -94 -311 -94q-29 0 -62 16q-68 31 -67 101q0 37 20 84l181 401q4 12 4 21q0 23 -29 22 q-45 0 -66 -45l-266 -600h-299zM575 944q70 145 199 146q49 0 107.5 -39t86.5 -39q51 0 103 78h20q-66 -150 -198 -150q-51 0 -109.5 40t-85.5 40q-47 0 -100 -76h-23z" />
<glyph unicode="&#xf2;" horiz-adv-x="722" d="M133 113q0 72 49 184l82 180q49 111 137 191q100 92 207 92h84q66 57 160 57q123 0 123 -102q0 -51 -37 -115q35 -8 57 -8q49 0 146 57l61 -59q-100 -104 -307 -125q-16 -37 -49 -113q-158 -352 -361 -352h-231q-121 0 -121 113zM389 139q0 -31 29 -30q49 -1 80 65 l159 361q-37 10 -36 69q0 20 6 33q-33 -18 -47 -53l-183 -410q-8 -18 -8 -35zM619 1086h223l67 -225h-167zM776 670q0 -20 14.5 -38t32.5 -18q7 0 11 2q12 27 12 56q0 39 -27 39q-43 0 -43 -41z" />
<glyph unicode="&#xf3;" horiz-adv-x="722" d="M133 113q0 72 49 184l82 180q49 111 137 191q100 92 207 92h84q66 57 160 57q123 0 123 -102q0 -51 -37 -115q35 -8 57 -8q49 0 146 57l61 -59q-100 -104 -307 -125q-16 -37 -49 -113q-158 -352 -361 -352h-231q-121 0 -121 113zM389 139q0 -31 29 -30q49 -1 80 65 l159 361q-37 10 -36 69q0 20 6 33q-33 -18 -47 -53l-183 -410q-8 -18 -8 -35zM553 861l266 225h224l-322 -225h-168zM776 670q0 -20 14.5 -38t32.5 -18q7 0 11 2q12 27 12 56q0 39 -27 39q-43 0 -43 -41z" />
<glyph unicode="&#xf4;" horiz-adv-x="722" d="M133 113q0 72 49 184l82 180q49 111 137 191q100 92 207 92h84q66 57 160 57q123 0 123 -102q0 -51 -37 -115q35 -8 57 -8q49 0 146 57l61 -59q-100 -104 -307 -125q-16 -37 -49 -113q-158 -352 -361 -352h-231q-121 0 -121 113zM389 139q0 -31 29 -30q49 -1 80 65 l159 361q-37 10 -36 69q0 20 6 33q-33 -18 -47 -53l-183 -410q-8 -18 -8 -35zM473 871l239 209h267l55 -209h-170l-53 133l-168 -133h-170zM776 670q0 -20 14.5 -38t32.5 -18q7 0 11 2q12 27 12 56q0 39 -27 39q-43 0 -43 -41z" />
<glyph unicode="&#xf5;" horiz-adv-x="722" d="M133 113q0 72 49 184l82 180q49 111 137 191q100 92 207 92h84q66 57 160 57q123 0 123 -102q0 -51 -37 -115q35 -8 57 -8q49 0 146 57l61 -59q-100 -104 -307 -125q-16 -37 -49 -113q-158 -352 -361 -352h-231q-121 0 -121 113zM389 139q0 -31 29 -30q49 -1 80 65 l159 361q-37 10 -36 69q0 20 6 33q-33 -18 -47 -53l-183 -410q-8 -18 -8 -35zM555 944q70 145 199 146q49 0 107.5 -39t86.5 -39q51 0 103 78h20q-66 -150 -198 -150q-51 0 -109.5 40t-85.5 40q-47 0 -100 -76h-23zM776 670q0 -20 14.5 -38t32.5 -18q7 0 11 2q12 27 12 56 q0 39 -27 39q-43 0 -43 -41z" />
<glyph unicode="&#xf6;" horiz-adv-x="722" d="M133 113q0 72 49 184l82 180q49 111 137 191q100 92 207 92h84q66 57 160 57q123 0 123 -102q0 -51 -37 -115q35 -8 57 -8q49 0 146 57l61 -59q-100 -104 -307 -125q-16 -37 -49 -113q-158 -352 -361 -352h-231q-121 0 -121 113zM389 139q0 -31 29 -30q49 -1 80 65 l159 361q-37 10 -36 69q0 20 6 33q-33 -18 -47 -53l-183 -410q-8 -18 -8 -35zM561 949q0 14 9 32q18 41 61 65.5t86 24.5q74 0 74 -57q0 -17 -6 -33q-18 -41 -62.5 -65.5t-85.5 -24.5q-76 0 -76 58zM776 670q0 -20 14.5 -38t32.5 -18q7 0 11 2q12 27 12 56q0 39 -27 39 q-43 0 -43 -41zM787 949q0 14 8 32q16 39 61 64.5t86 25.5q74 0 74 -57q0 -17 -8 -33q-16 -41 -60.5 -65.5t-85.5 -24.5q-76 0 -75 58z" />
<glyph unicode="&#xf8;" horiz-adv-x="722" d="M162 113q0 72 51 184l80 180q49 111 137 191q100 92 207 92h84q66 57 160 57q123 0 123 -102q0 -51 -37 -115q35 -8 57 -8q49 0 145 57l62 -59q-100 -104 -307 -125q-16 -37 -50 -113q-156 -352 -358 -352h-233q-121 0 -121 113zM188 49h117l549 551h-115zM418 139 q0 -31 28 -30q51 -1 80 65l160 361q-35 10 -35 69q0 20 6 33q-35 -18 -49 -53l-182 -410q-8 -18 -8 -35zM805 670q0 -20 14.5 -38t32.5 -18q6 0 12 2q10 27 10 56q0 39 -26 39q-43 0 -43 -41z" />
<glyph unicode="&#xf9;" horiz-adv-x="778" d="M152 143q0 76 57 203l172 387h268l-233 -522q-14 -33 -15 -59q0 -29 25 -29q43 0 76 78l266 600l227 -125l-188 -428q-8 -18 -8 -33q0 -27 30 -27q59 0 149.5 65.5t117.5 125.5l55 -72v-2q-51 -113 -227 -211q-168 -94 -312 -94q-66 0 -75 61q-76 -66 -166 -65 q-219 0 -219 147zM619 1086h223l67 -225h-167z" />
<glyph unicode="&#xfa;" horiz-adv-x="778" d="M152 143q0 76 57 203l172 387h268l-233 -522q-14 -33 -15 -59q0 -29 25 -29q43 0 76 78l266 600l227 -125l-188 -428q-8 -18 -8 -33q0 -27 30 -27q59 0 149.5 65.5t117.5 125.5l55 -72v-2q-51 -113 -227 -211q-168 -94 -312 -94q-66 0 -75 61q-76 -66 -166 -65 q-219 0 -219 147zM553 861l266 225h224l-322 -225h-168z" />
<glyph unicode="&#xfb;" horiz-adv-x="778" d="M152 143q0 76 57 203l172 387h268l-233 -522q-14 -33 -15 -59q0 -29 25 -29q43 0 76 78l266 600l227 -125l-188 -428q-8 -18 -8 -33q0 -27 30 -27q59 0 149.5 65.5t117.5 125.5l55 -72v-2q-51 -113 -227 -211q-168 -94 -312 -94q-66 0 -75 61q-76 -66 -166 -65 q-219 0 -219 147zM453 871l239 209h267l55 -209h-170l-53 133l-168 -133h-170z" />
<glyph unicode="&#xfc;" horiz-adv-x="778" d="M152 143q0 76 57 203l172 387h268l-233 -522q-14 -33 -15 -59q0 -29 25 -29q43 0 76 78l266 600l227 -125l-188 -428q-8 -18 -8 -33q0 -27 30 -27q59 0 149.5 65.5t117.5 125.5l55 -72v-2q-51 -113 -227 -211q-168 -94 -312 -94q-66 0 -75 61q-76 -66 -166 -65 q-219 0 -219 147zM561 949q0 14 9 32q18 41 61 65.5t86 24.5q74 0 74 -57q0 -17 -6 -33q-18 -41 -62.5 -65.5t-85.5 -24.5q-76 0 -76 58zM787 949q0 14 8 32q16 39 61 64.5t86 25.5q74 0 74 -57q0 -17 -8 -33q-16 -41 -60.5 -65.5t-85.5 -24.5q-76 0 -75 58z" />
<glyph unicode="&#xfd;" horiz-adv-x="788" d="M37 -205q0 37 18 78q66 147 248 193q-141 27 -141 149q0 76 53 195l174 391l211 -125l-170 -383q-14 -31 -14 -53q0 -27 22 -27q47 0 86 86l238 535l213 -158l-191 -428q-10 -20 -10 -33q0 -27 33 -27q59 0 149.5 65.5t116.5 125.5l55 -72v-2q-45 -102 -196 -192 q-131 -80 -252 -103l-53 -121q-49 -113 -166 -176q-104 -57 -221 -57q-84 0 -143.5 36t-59.5 103zM233 -166q0 -23 31 -22q31 -1 45 30q29 70 92 207q-72 -49 -106 -94q-25 -33 -59 -113q-2 -4 -3 -8zM553 861l266 225h224l-322 -225h-168z" />
<glyph unicode="&#xff;" horiz-adv-x="757" d="M37 -205q0 37 18 78q66 147 248 193q-141 27 -141 149q0 76 53 195l174 391l211 -125l-170 -383q-14 -31 -14 -53q0 -27 22 -27q47 0 86 86l238 535l213 -158l-191 -428q-10 -20 -10 -33q0 -27 33 -27q59 0 149.5 65.5t116.5 125.5l55 -72v-2q-45 -102 -196 -192 q-131 -80 -252 -103l-53 -121q-49 -113 -166 -176q-104 -57 -221 -57q-84 0 -143.5 36t-59.5 103zM233 -166q0 -23 31 -22q31 -1 45 30q29 70 92 207q-72 -49 -106 -94q-25 -33 -59 -113q-2 -4 -3 -8zM561 949q0 14 9 32q18 41 61 65.5t86 24.5q74 0 74 -57q0 -17 -6 -33 q-18 -41 -62.5 -65.5t-85.5 -24.5q-76 0 -76 58zM787 949q0 14 8 32q16 39 61 64.5t86 25.5q74 0 74 -57q0 -17 -8 -33q-16 -41 -60.5 -65.5t-85.5 -24.5q-76 0 -75 58z" />
<glyph unicode="&#x153;" horiz-adv-x="1036" d="M125 113q0 74 49 184l80 180q49 111 137 191q102 92 207 92h576q131 0 131 -101q0 -63 -72 -223q-51 -117 -203 -117h-207l-49 -108q-14 -33 -14 -57q0 -31 26 -31h58q199 0 377 117q104 70 135 139l55 -72v-2q-53 -117 -233 -215q-168 -90 -289 -90h-158q-94 0 -147 25 q-51 -25 -107 -25h-233q-119 0 -119 113zM379 141q0 -33 29 -32q50 -1 79 65l181 406q8 18 8 34q0 31 -29 31q-51 0 -86 -82l-174 -389q-8 -18 -8 -33zM874 434h93l75 168q2 8 2 12q0 25 -34 25q-45 0 -62 -39z" />
<glyph unicode="&#x178;" horiz-adv-x="1013" d="M2 1270q0 59 56 59h497q246 0 246 -110q0 -35 -18 -78l-338 -756q-4 -14 -5 -23q0 -18 23 -18q55 0 152.5 75t121.5 130l349 780h311l-641 -1440q-49 -111 -158 -172q-98 -57 -213 -57q-76 0 -137 29q-74 35 -74 96q0 23 13 49l36 84q119 266 400 373l14 28 q-199 -119 -366 -118q-137 0 -138 123q0 57 33 131l305 686q2 6 2 14q0 20 -22.5 38.5t-44.5 18.5h-355q-49 0 -49 58zM348 -166q0 -20 31 -20q33 -1 47 32q35 84 109 248q-82 -20 -152 -176l-33 -76q-2 -4 -2 -8zM835 1561q0 14 9 32q18 41 61 65.5t86 24.5q74 0 74 -57 q0 -17 -6 -33q-18 -41 -62.5 -65.5t-85.5 -24.5q-76 0 -76 58zM1061 1561q0 14 8 32q16 39 61 64.5t86 25.5q74 0 74 -57q0 -17 -8 -33q-16 -41 -60.5 -65.5t-85.5 -24.5q-76 0 -75 58z" />
<glyph unicode="&#x2c6;" horiz-adv-x="1206" d="M930 1483l239 209h267l55 -209h-170l-53 133l-168 -133h-170z" />
<glyph unicode="&#x2dc;" horiz-adv-x="1140" d="M1032 1556q70 145 199 146q49 0 107.5 -39t86.5 -39q51 0 103 78h20q-66 -150 -198 -150q-51 0 -109.5 40t-85.5 40q-47 0 -100 -76h-23z" />
<glyph unicode="&#x2000;" horiz-adv-x="851" />
<glyph unicode="&#x2001;" horiz-adv-x="1702" />
<glyph unicode="&#x2002;" horiz-adv-x="851" />
<glyph unicode="&#x2003;" horiz-adv-x="1702" />
<glyph unicode="&#x2004;" horiz-adv-x="567" />
<glyph unicode="&#x2005;" horiz-adv-x="425" />
<glyph unicode="&#x2006;" horiz-adv-x="283" />
<glyph unicode="&#x2007;" horiz-adv-x="283" />
<glyph unicode="&#x2008;" horiz-adv-x="212" />
<glyph unicode="&#x2009;" horiz-adv-x="340" />
<glyph unicode="&#x200a;" horiz-adv-x="94" />
<glyph unicode="&#x2010;" d="M332 641l45 98h385l-43 -98h-387z" />
<glyph unicode="&#x2011;" d="M332 641l45 98h385l-43 -98h-387z" />
<glyph unicode="&#x2012;" d="M332 641l45 98h385l-43 -98h-387z" />
<glyph unicode="&#x2013;" horiz-adv-x="1062" d="M332 641l107 98h917l-102 -98h-922z" />
<glyph unicode="&#x2014;" horiz-adv-x="2086" d="M332 641l214 98h1834l-205 -98h-1843z" />
<glyph unicode="&#x2018;" horiz-adv-x="374" d="M604 1245q0 80 47 135q72 78 193 78q47 0 84 -20.5t37 -57.5q0 -18 -9 -37q-23 -51 -82 -84.5t-116 -33.5q-18 0 -33 4q-4 -10 -4 -21q0 -45 59 -59l-53 -39q-123 41 -123 135z" />
<glyph unicode="&#x2019;" horiz-adv-x="380" d="M614 1305q0 18 10 39q25 55 97 88q61 27 118 26q47 0 84 -20.5t37 -56.5q0 -19 -8 -37q-78 -176 -307 -234l-19 39q98 18 127 80q-18 -4 -35 -4q-104 0 -104 80z" />
<glyph unicode="&#x201c;" horiz-adv-x="770" d="M625 1245q0 80 47 135q72 78 192 78q47 0 84 -20.5t37 -57.5q0 -18 -8 -37q-23 -51 -82 -84.5t-117 -33.5q-18 0 -33 4q-4 -10 -4 -21q0 -45 60 -59l-53 -39q-123 41 -123 135zM973 1245q0 80 47 135q72 78 192 78q47 0 84 -20.5t37 -57.5q0 -18 -8 -37 q-23 -51 -82 -84.5t-117 -33.5q-18 0 -32 4q-4 -10 -4 -21q0 -45 59 -59l-53 -39q-123 41 -123 135z" />
<glyph unicode="&#x201d;" horiz-adv-x="751" d="M635 1305q0 18 10 39q25 55 97 88q61 27 118 26q47 0 84 -20.5t37 -56.5q0 -19 -8 -37q-78 -176 -307 -234l-19 39q98 18 127 80q-18 -4 -35 -4q-104 0 -104 80zM983 1305q0 18 10 39q25 55 97 88q61 27 118 26q47 0 84 -20.5t37 -56.5q0 -19 -8 -37q-78 -176 -307 -234 l-19 39q98 18 127 80q-18 -4 -35 -4q-104 0 -104 80z" />
<glyph unicode="&#x2022;" horiz-adv-x="980" d="M412 391l204 307l-153 201l328 31l245 293l-2 -289l305 -21l-327 -208l-58 -306l-200 160zM803 725h16q6 0 8 6l7 10q-16 0 -17 4l10 23h-4q-4 -2 -6 -8zM836 725h8q4 12 8 12q0 -2 4 -4q6 5 12 17h-7h-7q16 6 23 18h-11h-6q-6 0 -10 -12z" />
<glyph unicode="&#x2026;" horiz-adv-x="2234" d="M131 80q0 16 8 35q25 55 97 88q61 27 118 26q47 0 84 -20.5t37 -56.5q0 -19 -8 -37q-25 -53 -96 -86q-59 -29 -119 -29q-47 0 -84 20.5t-37 59.5zM1014 80q0 16 8 35q25 55 97 88q61 27 118 26q47 0 84 -20.5t37 -56.5q0 -19 -8 -37q-25 -53 -96 -86q-59 -29 -119 -29 q-47 0 -84 20.5t-37 59.5zM1896 80q0 16 8 35q25 55 97 88q61 27 118 26q47 0 84 -20.5t37 -56.5q0 -19 -8 -37q-25 -53 -96 -86q-59 -29 -119 -29q-47 0 -84 20.5t-37 59.5z" />
<glyph unicode="&#x202f;" horiz-adv-x="340" />
<glyph unicode="&#x2039;" horiz-adv-x="471" d="M84 555v121l319 166v-127l-208 -97l208 -98v-123z" />
<glyph unicode="&#x203a;" horiz-adv-x="471" d="M84 397v127l209 99l-209 96v123l319 -158v-121z" />
<glyph unicode="&#x205f;" horiz-adv-x="425" />
<glyph unicode="&#x2122;" horiz-adv-x="1148" d="M88 991v111h408v-111h-142v-456h-121v456h-145zM547 537v567h137l109 -293l106 293h133v-567h-114v311l-123 -316l-136 328v-323h-112z" />
<glyph unicode="&#xe000;" horiz-adv-x="768" d="M0 0v768h768v-768h-768z" />
</font>
</defs>
</svg>
